<?xml version="1.0" standalone="no"?>
<!DOCTYPE svg PUBLIC "-//W3C//DTD SVG 1.1//EN" "http://www.w3.org/Graphics/SVG/1.1/DTD/svg11.dtd" >
<svg xmlns="http://www.w3.org/2000/svg">
<metadata>Generated by IcoMoon</metadata>
<defs>
<font id="icomoon" horiz-adv-x="1024">
<font-face units-per-em="1024" ascent="960" descent="-64" />
<missing-glyph horiz-adv-x="1024" />
<glyph unicode="&#x20;" horiz-adv-x="512" d="" />
<glyph unicode="&#xe900;" glyph-name="arrow-right" d="M878.326 405.334h-835.66c-23.564 0-42.666 19.106-42.666 42.666s19.102 42.666 42.666 42.666h835.66l-268.502 268.498c-16.658 16.662-16.658 43.678 0 60.34 16.666 16.664 43.682 16.664 60.348 0l341.334-341.33c16.658-16.666 16.658-43.682 0-60.348l-341.334-341.334c-16.666-16.658-43.682-16.658-60.348 0-16.658 16.666-16.658 43.682 0 60.348l268.502 268.492z" />
<glyph unicode="&#xe901;" glyph-name="collapse-down" d="M480 237.254v690.746c0 17.673 14.324 32 32 32 17.67 0 32-14.327 32-32v-690.746l201.369 201.369c12.5 12.5 32.762 12.5 45.255 0 12.5-12.494 12.5-32.756 0-45.255l-256.001-256.001c-12.494-12.494-32.756-12.494-45.255 0l-255.998 256.001c-12.497 12.5-12.497 32.762 0 45.255 12.497 12.5 32.759 12.5 45.255 0l201.374-201.369zM63.999-64c-17.673 0-32 14.33-32 32s14.327 32 32 32h896.002c17.67 0 32-14.33 32-32s-14.33-32-32-32h-896.002z" />
<glyph unicode="&#xe902;" glyph-name="continue" d="M926.885 675.553l-122.112 122.109c-11.105 11.108-11.105 29.119 0 40.227 11.111 11.109 29.121 11.109 40.232 0l170.667-170.667c11.105-11.108 11.105-29.119 0-40.227l-170.667-170.669c-11.111-11.105-29.121-11.105-40.232 0-11.105 11.111-11.105 29.121 0 40.232l122.112 122.107h-784.662c-47.128 0-85.333-38.205-85.333-85.333v-341.333c0-47.127 38.205-85.333 85.333-85.333h284.444c15.707 0 28.444-12.737 28.444-28.444s-12.737-28.444-28.444-28.444h-284.444c-78.547 0-142.223 63.676-142.223 142.223v341.333c0 78.547 63.675 142.223 142.223 142.223h784.662z" />
<glyph unicode="&#xe903;" glyph-name="bookmark" d="M791.841 756.078c0 46.365-37.588 83.952-83.952 83.952h-391.78c-46.365 0-83.952-37.587-83.952-83.952v-680.851l266.415 145.719c8.367 4.572 18.487 4.572 26.853 0l266.415-145.719v680.851zM217.602 3.471c-18.649-10.198-41.414 3.297-41.414 24.553v728.054c0 77.275 62.644 139.922 139.922 139.922h391.78c77.275 0 139.922-62.644 139.922-139.922v-728.054c0-21.258-22.763-34.752-41.411-24.553l-294.399 161.026-294.398-161.026z" />
<glyph unicode="&#xe904;" glyph-name="chevron-down" d="M918.349 688.588c26.841 23.004 67.239 19.899 90.24-6.939 23.001-26.841 19.905-67.239-6.939-90.24l-447.999-384c-23.961-20.544-59.328-20.544-83.301 0l-447.999 384c-26.838 23.001-29.946 63.399-6.942 90.24 23.004 26.835 63.405 29.943 90.243 6.939l406.35-348.3 406.35 348.3z" />
<glyph unicode="&#xe905;" glyph-name="chevron-left" d="M752.588 41.652c23.001-26.841 19.905-67.239-6.939-90.24s-67.239-19.905-90.24 6.939l-384.001 448c-20.547 23.961-20.547 59.328 0 83.301l384.001 448c23.001 26.835 63.399 29.943 90.24 6.942s29.94-63.405 6.939-90.243l-348.301-406.351 348.301-406.351z" />
<glyph unicode="&#xe906;" glyph-name="chevron-right" d="M619.712 447.997l-348.3 406.35c-23.007 26.835-19.899 67.239 6.939 90.243 26.841 23.004 67.239 19.896 90.24-6.942l384-447.999c20.544-23.973 20.544-59.34 0-83.301l-384-447.999c-23.001-26.841-63.399-29.94-90.24-6.939-26.835 23.001-29.943 63.399-6.939 90.24l348.3 406.35z" />
<glyph unicode="&#xe907;" glyph-name="chevron-up" d="M105.652 207.412c-26.838-23.001-67.242-19.905-90.243 6.939s-19.896 67.239 6.942 90.24l448 384c23.973 20.547 59.34 20.547 83.301 0l448-384c26.841-23.001 29.94-63.399 6.939-90.24s-63.399-29.94-90.24-6.939l-406.351 348.3-406.351-348.3z" />
<glyph unicode="&#xe908;" glyph-name="minus" d="M42.665 405.334c-23.564 0-42.666 19.106-42.666 42.666s19.102 42.666 42.666 42.666h938.668c23.56 0 42.666-19.106 42.666-42.666s-19.106-42.666-42.666-42.666h-938.668z" />
<glyph unicode="&#xe909;" glyph-name="plus" d="M551.384 487.384h433.232c21.748 0 39.384-17.636 39.384-39.384s-17.636-39.384-39.384-39.384h-433.232v-433.232c0-21.748-17.636-39.384-39.384-39.384s-39.384 17.636-39.384 39.384v433.232h-433.232c-21.751 0-39.384 17.636-39.384 39.384s17.633 39.384 39.384 39.384h433.232v433.232c0 21.751 17.636 39.384 39.384 39.384s39.384-17.633 39.384-39.384v-433.232z" />
<glyph unicode="&#xe90a;" glyph-name="close" d="M512 502.306l318.442 318.447c14.999 14.997 39.314 14.997 54.313 0 14.994-14.994 14.994-39.309 0-54.306l-318.451-318.447 318.451-318.442c14.994-14.999 14.994-39.314 0-54.313-14.999-14.994-39.314-14.994-54.313 0l-318.442 318.451-318.447-318.451c-14.994-14.994-39.309-14.994-54.306 0-14.997 14.999-14.997 39.314 0 54.313l318.447 318.442-318.447 318.447c-14.997 14.994-14.997 39.309 0 54.306s39.309 14.997 54.306 0l318.447-318.447z" />
<glyph unicode="&#xe90b;" glyph-name="refresh-left" d="M163.162 729.631c83.973 103.876 210.895 166.369 348.445 166.369 247.426 0 448-200.577 448-448 0-247.426-200.574-448-448-448-237.167 0-432.871 184.839-447.167 420.472-0.833 13.719 9.614 25.515 23.335 26.347s25.518-9.611 26.351-23.335c12.705-209.395 186.672-373.707 397.481-373.707 219.933 0 398.223 178.289 398.223 398.223s-178.289 398.223-398.223 398.223c-122.923 0-236.247-56.105-310.899-149.333h136.677c13.745 0 24.888-11.143 24.888-24.888s-11.143-24.888-24.888-24.888h-199.112c-13.745 0-24.888 11.143-24.888 24.888v199.112c0 13.745 11.143 24.888 24.888 24.888s24.888-11.143 24.888-24.888v-141.479z" />
<glyph unicode="&#xe90c;" glyph-name="compass" d="M600.179 372.941c-1.085-2.912-2.8-5.64-5.139-7.984-2.343-2.338-5.072-4.053-7.984-5.139l-223.539-89.416c-18.286-7.315-36.432 10.829-29.117 29.115l89.418 223.539c1.085 2.912 2.8 5.64 5.139 7.984 2.343 2.338 5.072 4.053 7.984 5.139l223.539 89.418c18.288 7.315 36.432-10.831 29.115-29.117l-89.416-223.539zM484.659 507.019l86.361-86.361 57.573 143.931-143.933-57.572zM539.341 388.981l-86.361 86.361-57.572-143.933 143.931 57.573zM512 0c-247.424 0-448 200.578-448 448 0 247.424 200.576 448 448 448 247.421 0 448-200.576 448-448 0-247.421-200.578-448-448-448zM512 44.8c222.683 0 403.2 180.517 403.2 403.2 0 222.68-180.517 403.2-403.2 403.2-222.68 0-403.2-180.519-403.2-403.2 0-222.683 180.519-403.2 403.2-403.2z" />
<glyph unicode="&#xe90d;" glyph-name="bell" d="M672.935 49.777c-23.757-67.311-87.757-113.777-160.951-113.777-73.352 0-137.267 46.637-160.955 113.777h-90.636c-78.547 0-142.223 63.676-142.223 142.223 0 19.9 4.176 39.577 12.257 57.759l40.221 90.499v164.631c0 148.619 94.983 275.054 227.555 321.911v19.423c0 62.837 50.939 113.777 113.777 113.777s113.777-50.94 113.777-113.777v-19.423c132.574-46.857 227.556-173.292 227.556-321.911v-164.631l40.22-90.499c31.903-71.777-0.427-155.824-72.204-187.722-18.181-8.084-37.86-12.26-57.759-12.26h-90.641zM610.567 49.777h-197.166c19.837-34.321 56.935-56.889 98.583-56.889 41.575 0 78.712 22.5 98.583 56.889zM568.873 841.503v4.72c0 31.419-25.469 56.889-56.889 56.889s-56.889-25.471-56.889-56.889v-4.72c18.5 3.104 37.507 4.72 56.889 4.72s38.388-1.616 56.889-4.72zM511.984 789.334c-157.095 0-284.444-127.351-284.444-284.444v-170.667l-2.452-11.555-42.672-96.012c-4.849-10.911-7.355-22.716-7.355-34.657 0-47.127 38.205-85.333 85.333-85.333h503.181c11.941 0 23.745 2.503 34.657 7.356 43.065 19.137 62.464 69.569 43.321 112.635l-42.672 96.012-2.452 11.555v170.667c0 157.095-127.352 284.444-284.444 284.444z" />
<glyph unicode="&#xe90e;" glyph-name="edit-pencil" d="M244.216 106.667l654.222 654.222-130.44 130.44-654.222-654.22v-130.44h130.44zM56.889 78.223v170.666c0 7.544 2.997 14.78 8.332 20.116l682.663 682.663c11.111 11.109 29.121 11.109 40.232 0l170.666-170.666c11.105-11.108 11.105-29.119 0-40.227l-682.668-682.668c-5.333-5.331-12.569-8.328-20.113-8.328h-170.666c-15.709 0-28.444 12.737-28.444 28.444zM85.333-63.999c-15.709 0-28.444 12.737-28.444 28.444s12.735 28.444 28.444 28.444h569.281c15.713 0 28.444-12.737 28.444-28.444s-12.732-28.444-28.444-28.444h-569.281z" />
<glyph unicode="&#xe90f;" glyph-name="bus" d="M814.323 667.429h-604.647c-29.257 0-48.762-19.505-48.762-48.762v-195.048c0-29.257 19.505-48.762 48.762-48.762h604.647c29.257 0 48.762 19.505 48.762 48.762v195.048c0 29.257-19.505 48.762-48.762 48.762zM209.676 618.667v0zM814.323 423.62h-97.523c0 4.877-4.877 9.752-9.752 14.629l-126.78 73.143c-9.752 4.877-24.381 4.877-34.134-9.752-4.877-9.752-4.877-24.381 9.752-34.134l73.143-43.886h-204.8c0 4.877-4.877 9.752-9.752 14.629l-126.78 73.143c-9.752 4.877-24.381 4.877-34.134-9.752-4.877-9.752-4.877-24.381 9.752-34.134l73.143-43.886h-131.657v195.048h604.647v-195.048zM282.819 764.952h458.362c14.629 0 24.381 9.752 24.381 24.381s-9.752 24.381-24.381 24.381h-458.362c-14.629 0-24.381-9.752-24.381-24.381s9.752-24.381 24.381-24.381zM921.599 852.724c-34.134 24.381-68.266 39.009-117.028 58.514-107.276 43.886-180.419 48.762-292.571 48.762s-185.295-4.877-292.571-48.762c-43.886-19.505-78.019-34.134-117.028-58.514-34.134-19.505-53.638-63.391-53.638-107.276v-565.637c0-68.266 48.762-126.78 112.152-141.409 0 0 0-4.877 0-4.877v-48.762c0-29.257 19.505-48.762 48.762-48.762h73.143c29.257 0 48.762 19.505 48.762 48.762v48.762h360.837v-48.762c0-29.257 19.505-48.762 48.762-48.762h73.143c29.257 0 48.762 19.505 48.762 48.762v48.762c0 0 0 4.877 0 4.877 63.391 14.629 112.152 73.143 112.152 141.409v565.637c0 43.886-19.505 87.771-53.638 107.276zM282.819-15.237h-73.143v48.762h73.143v-48.762zM814.323-15.237h-73.143v48.762h73.143v-48.762zM926.476 179.81c0-53.638-43.886-97.523-97.523-97.523h-633.904c-53.638 0-97.523 43.886-97.523 97.523v565.637c0 29.257 14.629 53.638 34.134 68.266 29.257 19.505 58.514 34.134 107.276 53.638 97.523 39.009 165.791 43.886 273.066 43.886s175.543-4.877 273.066-43.886c48.762-19.505 78.019-34.134 107.276-53.638 19.505-14.629 34.134-39.009 34.134-68.266v-565.637zM248.685 326.096c-48.762 0-87.771-39.009-87.771-87.771s39.009-82.895 87.771-82.895 87.771 39.009 87.771 87.771-43.886 82.895-87.771 82.895zM248.685 204.192c-19.505 0-39.009 14.629-39.009 39.009s14.629 39.009 39.009 39.009 39.009-14.629 39.009-39.009-19.505-39.009-39.009-39.009zM780.19 326.096c-48.762 0-87.771-39.009-87.771-87.771s39.009-87.771 87.771-87.771 87.771 39.009 87.771 87.771-43.886 87.771-87.771 87.771zM780.19 204.192c-19.505 0-39.009 14.629-39.009 39.009s14.629 39.009 39.009 39.009 39.009-14.629 39.009-39.009-19.505-39.009-39.009-39.009z" />
<glyph unicode="&#xe910;" glyph-name="flag" d="M568.84 845.853h312.762c23.429 0 36.804-26.749 22.747-45.492l-157.802-210.404 157.802-210.404c14.057-18.743 0.682-45.492-22.747-45.492h-284.328c-47.107 0-85.299 38.191-85.299 85.299 0 15.7-12.732 28.432-28.432 28.432h-312.762v-483.359c0-15.7-12.729-28.432-28.432-28.432s-28.432 12.732-28.432 28.432v910.269c0 47.109 38.19 85.299 85.299 85.299h284.328c47.107 0 85.299-38.19 85.299-85.299v-28.851zM568.84 788.986v-85.299c0-15.703-12.732-28.432-28.432-28.432s-28.432 12.729-28.432 28.432v113.619c0 0.037 0 0.075 0 0.112s0 0.076 0 0.113v57.17c0 15.703-12.732 28.432-28.432 28.432h-284.328c-15.703 0-28.432-12.729-28.432-28.432v-370.045h312.762c47.107 0 85.299-38.191 85.299-85.299 0-15.7 12.732-28.432 28.432-28.432h227.463l-136.478 181.97c-7.58 10.109-7.58 24.010 0 34.119l136.478 181.97h-255.896z" />
<glyph unicode="&#xe911;" glyph-name="hamburger-menu" d="M28.445 704c-15.709 0-28.444 12.735-28.444 28.444s12.735 28.444 28.444 28.444h967.112c15.707 0 28.444-12.735 28.444-28.444s-12.737-28.444-28.444-28.444h-967.112zM28.445 419.556c-15.709 0-28.444 12.737-28.444 28.444s12.735 28.444 28.444 28.444h967.112c15.707 0 28.444-12.737 28.444-28.444s-12.737-28.444-28.444-28.444h-967.112zM28.445 135.112c-15.709 0-28.444 12.737-28.444 28.444s12.735 28.444 28.444 28.444h967.112c15.707 0 28.444-12.737 28.444-28.444s-12.737-28.444-28.444-28.444h-967.112z" />
<glyph unicode="&#xe912;" glyph-name="home" d="M967.11 519.908v-441.684c0-78.547-63.676-142.222-142.222-142.222h-170.666c-15.707 0-28.444 12.737-28.444 28.444v341.333c0 15.707-12.737 28.444-28.444 28.444h-170.666c-15.707 0-28.444-12.737-28.444-28.444v-341.333c0-15.707-12.735-28.444-28.444-28.444h-170.666c-78.547 0-142.222 63.676-142.222 142.222v441.684l-10.363-8.533c-12.127-9.984-30.053-8.249-40.040 3.875-9.987 12.129-8.252 30.055 3.875 40.044l483.552 398.219c10.508 8.649 25.663 8.649 36.169 0l483.555-398.219c12.123-9.989 13.859-27.916 3.875-40.044-9.989-12.123-27.916-13.859-40.044-3.875l-10.36 8.533zM910.604 566.445l-398.603 328.261-398.603-328.261c0.251-1.519 0.381-3.079 0.381-4.668v-483.555c0-47.127 38.205-85.333 85.333-85.333h142.222v312.889c0 47.127 38.205 85.333 85.333 85.333h170.666c47.127 0 85.333-38.207 85.333-85.333v-312.889h142.222c47.127 0 85.333 38.207 85.333 85.333v483.555c0 1.589 0.131 3.149 0.381 4.668z" />
<glyph unicode="&#xe913;" glyph-name="info-circle" d="M556.8 268.8h67.2c12.369 0 22.4-10.031 22.4-22.4s-10.031-22.4-22.4-22.4h-179.2c-12.369 0-22.4 10.031-22.4 22.4s10.031 22.4 22.4 22.4h67.2v223.999h-67.2c-12.369 0-22.4 10.031-22.4 22.4s10.031 22.4 22.4 22.4h89.6c12.369 0 22.4-10.031 22.4-22.4v-246.4zM512 0c-247.424 0-448 200.578-448 448 0 247.424 200.576 448 448 448 247.421 0 448-200.576 448-448 0-247.421-200.578-448-448-448zM512 44.8c222.683 0 403.2 180.517 403.2 403.2 0 222.68-180.517 403.2-403.2 403.2-222.68 0-403.2-180.519-403.2-403.2 0-222.683 180.519-403.2 403.2-403.2zM489.6 671.999h44.8c12.369 0 22.4-10.029 22.4-22.4v-44.8c0-12.37-10.031-22.4-22.4-22.4h-44.8c-12.369 0-22.4 10.029-22.4 22.4v44.8c0 12.37 10.031 22.4 22.4 22.4z" />
<glyph unicode="&#xe914;" glyph-name="my-location" d="M881.585 428.521c-9.798-188.889-161.218-340.309-350.106-350.106v-58.937c0-10.756-8.722-19.479-19.479-19.479s-19.479 8.722-19.479 19.479v58.937c-188.889 9.798-340.311 161.218-350.106 350.106h-58.939c-10.758 0-19.479 8.722-19.479 19.479s8.72 19.479 19.479 19.479h58.939c9.793 188.889 161.217 340.311 350.106 350.106v58.939c0 10.758 8.722 19.479 19.479 19.479s19.479-8.72 19.479-19.479v-58.939c188.889-9.793 340.309-161.217 350.106-350.106h58.937c10.756 0 19.479-8.722 19.479-19.479s-8.722-19.479-19.479-19.479h-58.937zM512 116.869c182.877 0 331.132 148.253 331.132 331.132s-148.253 331.132-331.132 331.132c-182.878 0-331.132-148.253-331.132-331.132s148.253-331.132 331.132-331.132zM512 272.697c-96.818 0-175.304 78.487-175.304 175.304s78.487 175.304 175.304 175.304c96.818 0 175.304-78.487 175.304-175.304s-78.487-175.304-175.304-175.304zM512 311.652c75.303 0 136.348 61.046 136.348 136.348s-61.046 136.348-136.348 136.348c-75.303 0-136.348-61.046-136.348-136.348s61.046-136.348 136.348-136.348z" />
<glyph unicode="&#xe915;" glyph-name="pin" d="M485.333 342.527c-149.506 13.473-266.666 139.125-266.666 292.139 0 162.004 131.33 293.333 293.333 293.333s293.333-131.33 293.333-293.333c0-153.014-117.157-278.666-266.666-292.139v-347.861c0-14.725-11.941-26.666-26.666-26.666s-26.666 11.941-26.666 26.666v347.861zM511.999 394.667c132.548 0 240 107.452 240 240s-107.452 240-240 240c-132.548 0-240-107.452-240-240s107.452-240 240-240z" />
<glyph unicode="&#xe916;" glyph-name="clock" d="M512 0c-247.424 0-448 200.578-448 448 0 247.424 200.576 448 448 448 247.421 0 448-200.576 448-448 0-247.421-200.578-448-448-448zM512 44.8c222.683 0 403.2 180.517 403.2 403.2 0 222.68-180.517 403.2-403.2 403.2-222.68 0-403.2-180.519-403.2-403.2 0-222.683 180.519-403.2 403.2-403.2zM681.818 354.229c10.066-7.19 12.4-21.182 5.21-31.248s-21.182-12.4-31.248-5.21l-156.799 112c-4.198 3.003-7.235 7.357-8.592 12.333l-67.2 246.401c-3.255 11.935 3.781 24.25 15.715 27.504 11.939 3.255 24.25-3.781 27.506-15.716l65.099-238.702 150.309-107.363z" />
<glyph unicode="&#xe917;" glyph-name="search" d="M760.858 234.34l191.853-191.849c9.717-9.723 9.717-25.481 0-35.203-9.723-9.717-25.481-9.717-35.203 0l-191.849 191.853c-70.203-61.978-162.43-99.586-263.439-99.586-219.932 0-398.222 178.288-398.222 398.222s178.29 398.222 398.222 398.222c219.933 0 398.222-178.29 398.222-398.222 0-101.009-37.608-193.236-99.586-263.439zM462.223 149.334c192.44 0 348.444 156.003 348.444 348.444s-156.003 348.444-348.444 348.444c-192.44 0-348.444-156.004-348.444-348.444s156.004-348.444 348.444-348.444z" />
<glyph unicode="&#xe918;" glyph-name="user" d="M708.98 387.796l221.229-100.557c57.12-25.965 93.792-82.918 93.792-145.657v-45.58c0-88.365-71.635-160-160-160h-703.999c-88.365 0-160 71.635-160 160v45.58c0 62.739 36.672 119.692 93.792 145.657l221.227 100.557c-74.884 58.573-123.018 149.766-123.018 252.205 0 176.731 143.269 319.999 319.999 319.999s319.999-143.269 319.999-319.999c0-102.438-48.135-193.632-123.021-252.205zM381.523 347.727l-261.246-118.752c-34.272-15.577-56.275-49.747-56.275-87.391v-45.58c0-53.017 42.981-96 96-96h703.999c53.017 0 96 42.982 96 96v45.58c0 37.645-22.003 71.814-56.275 87.391l-261.247 118.752c-39.846-17.817-84.006-27.724-130.477-27.724s-90.63 9.907-130.479 27.724zM512.001 384.001c141.382 0 256 114.618 256 256 0 141.385-114.618 256-256 256-141.385 0-256-114.615-256-256 0-141.382 114.615-256 256-256z" />
<glyph unicode="&#xe919;" glyph-name="wallet" d="M972.8 627.2c-21.402 16.076-47.975 25.6-76.8 25.6h-28.16c-11.879 58.42-63.539 102.4-125.439 102.4h-460.8c-61.901 0-113.562-43.981-125.439-102.4h-28.16c-42.445 0-76.8 34.355-76.8 76.8v51.2c0 42.445 34.355 76.8 76.8 76.8h767.999c42.445 0 76.8-34.355 76.8-76.8v-153.6zM209.153 652.801c10.547 29.85 39.014 51.2 72.448 51.2h460.8c33.433 0 61.901-21.35 72.448-51.2h-605.696zM972.8 448.001h-179.199c-70.708 0-128-57.293-128-128s57.293-128 128-128h179.199v-76.8c0-42.394-34.355-76.8-76.8-76.8h-767.999c-42.445 0-76.8 34.406-76.8 76.8v512c21.402-16.076 47.975-25.6 76.8-25.6h767.999c42.445 0 76.8-34.406 76.8-76.8v-76.8zM972.8 243.2h-179.199c-42.445 0-76.8 34.406-76.8 76.8s34.355 76.8 76.8 76.8h179.199v-153.6zM896 908.8h-767.999c-70.708 0-128-57.293-128-128v-665.6c0-70.708 57.293-128 128-128h767.999c70.708 0 128 57.293 128 128v665.6c0 70.708-57.293 128-128 128z" />
<glyph unicode="&#xe91a;" glyph-name="sort" d="M779.553-40.372c5.693-7.774 14.887-12.819 25.279-12.819s19.578 5.044 25.279 12.819l184.721 184.721c12.224 12.231 12.224 32.045 0 44.271-12.237 12.229-32.045 12.229-44.279 0l-134.407-134.414v863.67c0 17.291-14.012 31.302-31.302 31.302s-31.302-14.012-31.302-31.302v-863.67l-134.41 134.414c-12.231 12.229-32.045 12.229-44.271 0s-12.231-32.045 0-44.271l184.721-184.721zM193.862 936.368c5.693 7.779 14.891 12.824 25.279 12.824s19.578-5.043 25.279-12.824l184.721-184.721c12.231-12.231 12.231-32.045 0-44.271s-32.045-12.231-44.271 0l-134.41 134.41v-863.661c0-17.301-14.012-31.302-31.303-31.302s-31.302 14.002-31.302 31.302v863.661l-134.411-134.41c-12.231-12.231-32.045-12.231-44.271 0s-12.229 32.045 0 44.271l184.721 184.721z" />
</font>
</defs>
</svg>
