<svg width="34" height="34" viewBox="0 0 34 34" fill="none" xmlns="http://www.w3.org/2000/svg">
<rect x="2" y="2" width="32" height="32" rx="8" fill="#F3E9D8"/>
<rect x="0.5" y="0.5" width="31" height="31" rx="7.5" fill="#EDBA55" stroke="#F3E9D8"/>
<path fill-rule="evenodd" clip-rule="evenodd" d="M20.6502 13.375H11.3502V16.375H20.6502V13.375ZM11.3502 12.625C10.936 12.625 10.6002 12.9608 10.6002 13.375V16.375C10.6002 16.7892 10.936 17.125 11.3502 17.125H20.6502C21.0644 17.125 21.4002 16.7892 21.4002 16.375V13.375C21.4002 12.9608 21.0644 12.625 20.6502 12.625H11.3502Z" fill="#333333"/>
<path d="M12.0999 10.75C12.0999 10.5429 12.2677 10.375 12.4749 10.375H19.5249C19.732 10.375 19.8999 10.5429 19.8999 10.75C19.8999 10.9571 19.732 11.125 19.5249 11.125H12.4749C12.2677 11.125 12.0999 10.9571 12.0999 10.75Z" fill="#333333"/>
<path fill-rule="evenodd" clip-rule="evenodd" d="M22.375 20.1249V11.4445C22.375 10.9769 22.1779 10.585 21.8725 10.3793C21.4095 10.0676 20.9633 9.85683 20.2307 9.57499C18.7117 8.99061 17.6879 8.875 16 8.875C14.3121 8.875 13.2883 8.99061 11.7693 9.57499C11.0367 9.85683 10.5905 10.0676 10.1275 10.3793C9.82208 10.585 9.625 10.9769 9.625 11.4444V20.1249C9.625 20.9534 10.2966 21.6249 11.125 21.6249H20.875C21.7034 21.6249 22.375 20.9534 22.375 20.1249ZM9.70862 9.75722C9.15669 10.1289 8.875 10.779 8.875 11.4444V20.1249C8.875 21.3676 9.88236 22.3749 11.125 22.3749H20.875C22.1176 22.3749 23.125 21.3676 23.125 20.1249V11.4445C23.125 10.779 22.8433 10.1289 22.2914 9.75723C21.7616 9.40043 21.2564 9.16601 20.5 8.875C18.8691 8.24761 17.7474 8.125 16 8.125C14.2526 8.125 13.1309 8.24761 11.5 8.875C10.7436 9.166 10.2384 9.40042 9.70862 9.75722Z" fill="#333333"/>
<path d="M12.0625 15.1998C12.1661 15.0204 12.3954 14.9589 12.5748 15.0625L14.5233 16.1875C14.7027 16.2911 14.7641 16.5204 14.6606 16.6998C14.557 16.8791 14.3277 16.9406 14.1483 16.837L12.1998 15.712C12.0204 15.6085 11.9589 15.3791 12.0625 15.1998Z" fill="#333333"/>
<path d="M16.5625 15.1998C16.6661 15.0204 16.8954 14.9589 17.0748 15.0625L19.0233 16.1875C19.2027 16.2911 19.2641 16.5204 19.1606 16.6998C19.057 16.8791 18.8277 16.9406 18.6483 16.837L16.6998 15.712C16.5204 15.6085 16.4589 15.3791 16.5625 15.1998Z" fill="#333333"/>
<path fill-rule="evenodd" clip-rule="evenodd" d="M11.3502 19.1874C11.3502 19.4981 11.6021 19.7499 11.9127 19.7499C12.2234 19.7499 12.4752 19.4981 12.4752 19.1874C12.4752 18.8768 12.2234 18.6249 11.9127 18.6249C11.6021 18.6249 11.3502 18.8768 11.3502 19.1874ZM11.9127 17.8749C11.1878 17.8749 10.6002 18.4626 10.6002 19.1874C10.6002 19.9123 11.1878 20.4999 11.9127 20.4999C12.6376 20.4999 13.2252 19.9123 13.2252 19.1874C13.2252 18.4626 12.6376 17.8749 11.9127 17.8749Z" fill="#333333"/>
<path fill-rule="evenodd" clip-rule="evenodd" d="M19.5248 19.1874C19.5248 19.4981 19.7766 19.7499 20.0873 19.7499C20.3979 19.7499 20.6498 19.4981 20.6498 19.1874C20.6498 18.8768 20.3979 18.6249 20.0873 18.6249C19.7766 18.6249 19.5248 18.8768 19.5248 19.1874ZM20.0873 17.8749C19.3624 17.8749 18.7748 18.4626 18.7748 19.1874C18.7748 19.9123 19.3624 20.4999 20.0873 20.4999C20.8122 20.4999 21.3998 19.9123 21.3998 19.1874C21.3998 18.4626 20.8122 17.8749 20.0873 17.8749Z" fill="#333333"/>
<path fill-rule="evenodd" clip-rule="evenodd" d="M12.4752 22.375H11.3502L11.3502 23.125H12.4752V22.375ZM11.3502 21.625C10.936 21.625 10.6002 21.9608 10.6002 22.375V23.125C10.6002 23.5392 10.936 23.875 11.3502 23.875H12.4752C12.8894 23.875 13.2252 23.5392 13.2252 23.125V22.375C13.2252 21.9608 12.8894 21.625 12.4752 21.625H11.3502Z" fill="#333333"/>
<path fill-rule="evenodd" clip-rule="evenodd" d="M20.6498 22.375H19.5248L19.5248 23.125H20.6498V22.375ZM19.5248 21.625C19.1106 21.625 18.7748 21.9608 18.7748 22.375V23.125C18.7748 23.5392 19.1106 23.875 19.5248 23.875H20.6498C21.064 23.875 21.3998 23.5392 21.3998 23.125V22.375C21.3998 21.9608 21.064 21.625 20.6498 21.625H19.5248Z" fill="#333333"/>
</svg>
