<svg width="34" height="34" viewBox="0 0 34 34" fill="none" xmlns="http://www.w3.org/2000/svg">
<rect x="2" y="2" width="32" height="32" rx="8" fill="#F3E9D8"/>
<rect x="2.5" y="2.5" width="31" height="31" rx="7.5" fill="#333333" stroke="#F3E9D8"/>
<path fill-rule="evenodd" clip-rule="evenodd" d="M22.6502 15.375H13.3502V18.375H22.6502V15.375ZM13.3502 14.625C12.936 14.625 12.6002 14.9608 12.6002 15.375V18.375C12.6002 18.7892 12.936 19.125 13.3502 19.125H22.6502C23.0644 19.125 23.4002 18.7892 23.4002 18.375V15.375C23.4002 14.9608 23.0644 14.625 22.6502 14.625H13.3502Z" fill="#F3E9D8"/>
<path d="M14.0999 12.75C14.0999 12.5429 14.2677 12.375 14.4749 12.375H21.5249C21.732 12.375 21.8999 12.5429 21.8999 12.75C21.8999 12.9571 21.732 13.125 21.5249 13.125H14.4749C14.2677 13.125 14.0999 12.9571 14.0999 12.75Z" fill="#F3E9D8"/>
<path fill-rule="evenodd" clip-rule="evenodd" d="M24.375 22.1249V13.4445C24.375 12.9769 24.1779 12.585 23.8725 12.3793C23.4095 12.0676 22.9633 11.8568 22.2307 11.575C20.7117 10.9906 19.6879 10.875 18 10.875C16.3121 10.875 15.2883 10.9906 13.7693 11.575C13.0367 11.8568 12.5905 12.0676 12.1275 12.3793C11.8221 12.585 11.625 12.9769 11.625 13.4444V22.1249C11.625 22.9534 12.2966 23.6249 13.125 23.6249H22.875C23.7034 23.6249 24.375 22.9534 24.375 22.1249ZM11.7086 11.7572C11.1567 12.1289 10.875 12.779 10.875 13.4444V22.1249C10.875 23.3676 11.8824 24.3749 13.125 24.3749H22.875C24.1176 24.3749 25.125 23.3676 25.125 22.1249V13.4445C25.125 12.779 24.8433 12.1289 24.2914 11.7572C23.7616 11.4004 23.2564 11.166 22.5 10.875C20.8691 10.2476 19.7474 10.125 18 10.125C16.2526 10.125 15.1309 10.2476 13.5 10.875C12.7436 11.166 12.2384 11.4004 11.7086 11.7572Z" fill="#F3E9D8"/>
<path d="M14.0625 17.1998C14.1661 17.0204 14.3954 16.9589 14.5748 17.0625L16.5233 18.1875C16.7027 18.2911 16.7641 18.5204 16.6606 18.6998C16.557 18.8791 16.3277 18.9406 16.1483 18.837L14.1998 17.712C14.0204 17.6085 13.9589 17.3791 14.0625 17.1998Z" fill="#F3E9D8"/>
<path d="M18.5625 17.1998C18.6661 17.0204 18.8954 16.9589 19.0748 17.0625L21.0233 18.1875C21.2027 18.2911 21.2641 18.5204 21.1606 18.6998C21.057 18.8791 20.8277 18.9406 20.6483 18.837L18.6998 17.712C18.5204 17.6085 18.4589 17.3791 18.5625 17.1998Z" fill="#F3E9D8"/>
<path fill-rule="evenodd" clip-rule="evenodd" d="M13.3502 21.1874C13.3502 21.4981 13.6021 21.7499 13.9127 21.7499C14.2234 21.7499 14.4752 21.4981 14.4752 21.1874C14.4752 20.8768 14.2234 20.6249 13.9127 20.6249C13.6021 20.6249 13.3502 20.8768 13.3502 21.1874ZM13.9127 19.8749C13.1878 19.8749 12.6002 20.4626 12.6002 21.1874C12.6002 21.9123 13.1878 22.4999 13.9127 22.4999C14.6376 22.4999 15.2252 21.9123 15.2252 21.1874C15.2252 20.4626 14.6376 19.8749 13.9127 19.8749Z" fill="#F3E9D8"/>
<path fill-rule="evenodd" clip-rule="evenodd" d="M21.5248 21.1874C21.5248 21.4981 21.7766 21.7499 22.0873 21.7499C22.3979 21.7499 22.6498 21.4981 22.6498 21.1874C22.6498 20.8768 22.3979 20.6249 22.0873 20.6249C21.7766 20.6249 21.5248 20.8768 21.5248 21.1874ZM22.0873 19.8749C21.3624 19.8749 20.7748 20.4626 20.7748 21.1874C20.7748 21.9123 21.3624 22.4999 22.0873 22.4999C22.8122 22.4999 23.3998 21.9123 23.3998 21.1874C23.3998 20.4626 22.8122 19.8749 22.0873 19.8749Z" fill="#F3E9D8"/>
<path fill-rule="evenodd" clip-rule="evenodd" d="M14.4752 24.375H13.3502L13.3502 25.125H14.4752V24.375ZM13.3502 23.625C12.936 23.625 12.6002 23.9608 12.6002 24.375V25.125C12.6002 25.5392 12.936 25.875 13.3502 25.875H14.4752C14.8894 25.875 15.2252 25.5392 15.2252 25.125V24.375C15.2252 23.9608 14.8894 23.625 14.4752 23.625H13.3502Z" fill="#F3E9D8"/>
<path fill-rule="evenodd" clip-rule="evenodd" d="M22.6498 24.375H21.5248L21.5248 25.125H22.6498V24.375ZM21.5248 23.625C21.1106 23.625 20.7748 23.9608 20.7748 24.375V25.125C20.7748 25.5392 21.1106 25.875 21.5248 25.875H22.6498C23.064 25.875 23.3998 25.5392 23.3998 25.125V24.375C23.3998 23.9608 23.064 23.625 22.6498 23.625H21.5248Z" fill="#F3E9D8"/>
</svg>
