<svg width="77" height="24" viewBox="0 0 77 24" fill="none" xmlns="http://www.w3.org/2000/svg">
<path d="M9.68 5.616C9.808 5.68 10 5.784 10.256 5.928C10.528 6.056 10.744 6.192 10.904 6.336C11.08 6.464 11.216 6.624 11.312 6.816C11.808 7.552 12.224 8.416 12.56 9.408C12.896 10.4 13.064 11.392 13.064 12.384C13.064 13.008 12.976 13.632 12.8 14.256V15.192C12.736 15.352 12.608 15.544 12.416 15.768C12.224 15.992 12.096 16.136 12.032 16.2C11.888 16.392 11.704 16.696 11.48 17.112C11.288 17.48 11.104 17.784 10.928 18.024C10.768 18.264 10.576 18.472 10.352 18.648C9.776 19.16 9.112 19.56 8.36 19.848C7.608 20.136 6.592 20.456 5.312 20.808C4.192 21.144 3.216 21.312 2.384 21.312C1.776 21.312 1.2 21.232 0.656 21.072C0.656 21.008 0.64 20.936 0.608 20.856C0.592 20.776 0.584 20.704 0.584 20.64C0.696 20.64 0.912 20.576 1.232 20.448C1.552 20.304 1.72 20.2 1.736 20.136V9.528C1.736 9.096 1.744 8.584 1.76 7.992C1.776 7.4 1.792 6.944 1.808 6.624C1.84 6.208 1.856 5.896 1.856 5.688C1.744 5.64 1.6 5.592 1.424 5.544L1.352 5.52C1.272 5.52 1.152 5.544 0.992 5.592C0.832 5.64 0.72 5.648 0.656 5.616C0.464 5.552 0.336 5.464 0.272 5.352C0.224 5.224 0.2 5.008 0.2 4.704C0.376 4.656 0.592 4.632 0.848 4.632L1.688 4.656C1.736 4.64 1.864 4.632 2.072 4.632C2.28 4.616 2.424 4.584 2.504 4.536C2.728 4.552 3.168 4.56 3.824 4.56C4.88 4.56 5.72 4.592 6.344 4.656C6.488 4.656 6.864 4.616 7.472 4.536C7.744 4.568 7.992 4.64 8.216 4.752C8.44 4.864 8.72 5.024 9.056 5.232C9.376 5.44 9.584 5.568 9.68 5.616ZM3.464 6.24C3.544 6.16 3.616 6.04 3.68 5.88C3.744 5.704 3.76 5.568 3.728 5.472C3.728 5.472 3.68 5.456 3.584 5.424C3.536 5.568 3.496 5.704 3.464 5.832C3.432 5.96 3.392 6.096 3.344 6.24L3.416 6.312L3.464 6.24ZM6.8 5.544C6.928 5.544 7.04 5.56 7.136 5.592C7.232 5.608 7.328 5.616 7.424 5.616V5.472L7.352 5.424H6.848L6.8 5.544ZM10.232 13.344C10.28 13.12 10.304 12.904 10.304 12.696C10.304 12.232 10.232 11.784 10.088 11.352C9.96 10.904 9.88 10.632 9.848 10.536C9.816 10.424 9.784 10.328 9.752 10.248C9.72 10.168 9.696 10.088 9.68 10.008C9.44 9.208 9.208 8.592 8.984 8.16C8.76 7.728 8.384 7.352 7.856 7.032C7.648 6.968 7.456 6.904 7.28 6.84C7.12 6.76 6.976 6.696 6.848 6.648C6.768 6.6 6.584 6.504 6.296 6.36C6.024 6.216 5.752 6.096 5.48 6C5.224 5.904 4.96 5.84 4.688 5.808C4.688 5.872 4.672 5.944 4.64 6.024C4.624 6.104 4.616 6.176 4.616 6.24C4.616 9.216 4.608 11.448 4.592 12.936L4.568 19.632H4.472C4.44 19.568 4.4 19.52 4.352 19.488V20.136C5.12 20.104 5.776 19.888 6.32 19.488C6.88 19.072 7.392 18.536 7.856 17.88C8.528 16.984 9.04 16.224 9.392 15.6C9.76 14.96 10.04 14.208 10.232 13.344ZM9.68 7.656C9.504 7.192 9.128 6.808 8.552 6.504C7.992 6.2 7.36 5.968 6.656 5.808C6.896 6.032 7.352 6.272 8.024 6.528C8.52 6.72 8.832 6.864 8.96 6.96C9.088 7.024 9.224 7.176 9.368 7.416C9.512 7.64 9.616 7.768 9.68 7.8C9.68 7.768 9.68 7.752 9.68 7.752C9.696 7.736 9.696 7.704 9.68 7.656ZM11.648 10.416H11.912C11.88 9.824 11.664 9.184 11.264 8.496C10.864 7.808 10.376 7.216 9.8 6.72C9.224 6.208 8.672 5.92 8.144 5.856L8.072 5.928C8.12 5.96 8.144 6.008 8.144 6.072C8.864 6.344 9.544 6.904 10.184 7.752C10.84 8.584 11.328 9.448 11.648 10.344V10.416ZM2.36 6.816C2.36 7.04 2.392 7.192 2.456 7.272C2.456 7.064 2.424 6.912 2.36 6.816ZM3.2 7.656C3.312 7.48 3.368 7.304 3.368 7.128C3.368 7.032 3.36 6.96 3.344 6.912H3.2C3.168 7.024 3.144 7.168 3.128 7.344C3.112 7.52 3.12 7.624 3.152 7.656V7.704L3.2 7.656ZM2.96 11.352C2.976 11.272 2.992 11.176 3.008 11.064C3.024 10.936 3.048 10.8 3.08 10.656H2.816C2.816 10.784 2.824 10.912 2.84 11.04C2.872 11.168 2.888 11.296 2.888 11.424L2.96 11.352ZM2.816 11.808C2.848 11.76 2.864 11.72 2.864 11.688C2.864 11.656 2.848 11.616 2.816 11.568C2.816 11.632 2.8 11.696 2.768 11.76C2.752 11.808 2.744 11.864 2.744 11.928H2.816V11.808ZM4.232 17.376C4.216 17.472 4.208 17.64 4.208 17.88C4.208 18.296 4.256 18.6 4.352 18.792C4.384 18.408 4.4 18.168 4.4 18.072C4.4 17.768 4.344 17.536 4.232 17.376ZM27.0258 19.992C27.0738 20.12 27.1298 20.184 27.1938 20.184H27.2658L27.1938 20.232C27.0498 20.376 26.6338 20.512 25.9458 20.64C25.2738 20.768 24.6418 20.832 24.0498 20.832C23.5058 20.832 23.1698 20.776 23.0418 20.664C22.7698 19.944 22.5938 19.544 22.5138 19.464C21.6978 19.944 20.8018 20.184 19.8258 20.184C18.9298 20.184 18.1778 19.976 17.5698 19.56C16.9618 19.128 16.6578 18.52 16.6578 17.736C16.6578 17.432 16.7058 17.112 16.8018 16.776C17.2018 15.416 17.9298 14.32 18.9858 13.488C20.0418 12.64 21.4418 12.256 23.1858 12.336L23.2818 12.288C23.3138 11.744 23.3298 11.336 23.3298 11.064C23.3298 10.552 23.2738 10.16 23.1618 9.888C23.1138 9.872 22.7378 9.728 22.0338 9.456C21.7458 9.408 21.4738 9.384 21.2178 9.384C20.6898 9.384 20.2338 9.472 19.8498 9.648C19.4658 9.824 19.0098 10.08 18.4818 10.416C17.9218 10.768 17.5378 10.992 17.3298 11.088L16.8498 10.872C17.5218 10.2 18.2418 9.624 19.0098 9.144C19.7778 8.664 20.6658 8.272 21.6738 7.968C21.8498 7.904 22.0498 7.872 22.2738 7.872C22.4338 7.872 22.6898 7.904 23.0418 7.968C23.1058 7.984 23.1938 8 23.3058 8.016C23.4178 8.032 23.5538 8.04 23.7138 8.04C23.9378 8.216 24.2658 8.424 24.6978 8.664C25.0978 8.904 25.4018 9.104 25.6098 9.264C25.8338 9.424 26.0098 9.64 26.1378 9.912C26.2978 10.296 26.3778 10.744 26.3778 11.256C26.3778 11.608 26.3378 12 26.2578 12.432C26.1938 12.864 26.1218 13.264 26.0418 13.632C25.9618 13.984 25.9218 14.168 25.9218 14.184C25.8098 14.68 25.7538 15.216 25.7538 15.792C25.7538 16.288 25.8178 17.064 25.9458 18.12C26.0418 18.968 26.0978 19.584 26.1138 19.968L27.0258 19.992ZM24.4098 12.264C24.3938 12.296 24.3618 12.368 24.3138 12.48C24.2658 12.592 24.2578 12.736 24.2898 12.912L24.4098 12.264ZM23.1618 18.168C23.2258 18.056 23.2578 17.888 23.2578 17.664C23.2578 17.488 23.2418 17.28 23.2098 17.04C23.1938 16.8 23.1778 16.624 23.1618 16.512C23.1458 16.352 23.1378 16.12 23.1378 15.816V14.904C23.1378 14.2 23.0658 13.656 22.9218 13.272H22.5378C22.3138 13.432 22.1458 13.544 22.0338 13.608C21.7778 13.768 21.5858 13.896 21.4578 13.992C20.7858 14.52 20.2978 15.08 19.9938 15.672C19.7058 16.248 19.5618 16.92 19.5618 17.688C19.5618 18.136 19.6098 18.64 19.7058 19.2C19.7698 19.232 19.8418 19.28 19.9218 19.344C20.0018 19.392 20.0898 19.424 20.1858 19.44C20.2818 19.456 20.4258 19.464 20.6178 19.464C20.7138 19.416 21.0018 19.304 21.4818 19.128C21.9458 18.984 22.3218 18.84 22.6098 18.696C22.8978 18.552 23.0818 18.376 23.1618 18.168ZM17.5938 16.104H17.4258C17.4578 16.184 17.4738 16.24 17.4738 16.272C17.4738 16.288 17.4818 16.304 17.4978 16.32C17.5298 16.32 17.5698 16.336 17.6178 16.368L17.5938 16.104ZM18.4338 17.592C18.3858 17.928 18.3618 18.144 18.3618 18.24C18.3618 18.464 18.3938 18.616 18.4578 18.696L18.4818 17.952C18.4818 17.76 18.4658 17.64 18.4338 17.592ZM25.0338 17.592H24.9618C24.9618 17.72 24.9538 17.856 24.9378 18C24.9218 18.128 24.9138 18.248 24.9138 18.36C24.9138 18.504 24.9378 18.648 24.9858 18.792H25.0818L25.0338 17.592ZM17.6418 18.864H17.3298C17.3778 18.896 17.4178 18.928 17.4498 18.96C17.4978 18.976 17.5698 18.992 17.6658 19.008L17.6418 18.864ZM25.1058 19.104H25.0098V19.224H25.1058V19.104ZM18.7698 19.704C18.6578 19.704 18.4818 19.664 18.2418 19.584C18.2738 19.648 18.3058 19.696 18.3378 19.728C18.3698 19.76 18.3858 19.792 18.3858 19.824H18.7698V19.704ZM23.6658 19.68C23.7458 19.76 23.7938 19.816 23.8098 19.848C23.8418 19.864 23.8738 19.832 23.9058 19.752H23.8338C23.8178 19.736 23.8018 19.728 23.7858 19.728C23.7698 19.728 23.7298 19.712 23.6658 19.68ZM51.9969 11.256C52.3489 11.4 52.6689 11.552 52.9569 11.712C53.2449 11.872 53.3009 11.968 53.1249 12C53.0129 12.016 52.6209 12.208 51.9489 12.576C51.2129 12.976 50.5649 13.304 50.0049 13.56C49.4609 13.816 49.0129 13.952 48.6609 13.968C48.0689 13.488 47.3809 12.656 46.5969 11.472C45.8129 10.288 45.2689 9.296 44.9649 8.496C44.7409 7.84 44.5249 7.32 44.3169 6.936C44.1089 6.552 43.7809 6.008 43.3329 5.304C43.2049 5.128 42.8449 4.688 42.2529 3.984C41.8049 3.472 41.4449 3.048 41.1729 2.712C40.9169 2.376 40.7009 2.032 40.5249 1.68C41.4209 1.776 42.1649 2.12 42.7569 2.712L43.7889 3.744C44.4769 4.432 45.0369 5.016 45.4689 5.496C45.9169 5.96 46.3809 6.496 46.8609 7.104C47.8689 8.336 48.7489 9.208 49.5009 9.72C49.5809 9.784 49.8929 10.008 50.4369 10.392C50.9969 10.76 51.5169 11.048 51.9969 11.256ZM37.7169 2.4C37.9729 2.432 38.3329 2.6 38.7969 2.904C39.2609 3.192 39.6769 3.528 40.0449 3.912C40.4129 4.28 40.6049 4.6 40.6209 4.872C40.2529 5.272 39.7649 5.888 39.1569 6.72C38.9009 7.104 38.7009 7.384 38.5569 7.56C38.4129 7.64 38.1329 7.848 37.7169 8.184L37.0209 8.88C36.0929 9.808 35.3889 10.448 34.9089 10.8C34.7489 10.944 34.4929 11.096 34.1409 11.256C33.9489 11.32 33.7569 11.416 33.5649 11.544C33.3409 11.704 33.1009 11.928 32.8449 12.216C32.4929 12.568 32.1729 12.832 31.8849 13.008C31.6129 13.184 31.2609 13.28 30.8289 13.296C30.7969 13.264 30.7729 13.216 30.7569 13.152C30.7409 13.088 30.7249 13.032 30.7089 12.984C31.5729 12.424 32.2049 11.912 32.6049 11.448C33.0209 10.968 33.4849 10.296 33.9969 9.432L34.7409 8.208C34.8849 7.952 35.0209 7.728 35.1489 7.536C35.2769 7.344 35.3889 7.176 35.4849 7.032C36.0449 6.184 36.4689 5.44 36.7569 4.8C37.0609 4.16 37.2849 3.392 37.4289 2.496L37.7169 2.4ZM38.3889 3.864H38.2449C38.2129 3.944 38.1809 4 38.1489 4.032C38.1169 4.064 38.1009 4.096 38.1009 4.128C38.1009 4.16 38.1329 4.192 38.1969 4.224C38.2769 4.256 38.3409 4.288 38.3889 4.32V3.864ZM36.3489 7.392C36.3969 7.28 36.5249 7.096 36.7329 6.84C37.0689 6.36 37.3249 5.968 37.5009 5.664C37.6769 5.344 37.7649 5.072 37.7649 4.848C37.7649 4.72 37.7249 4.616 37.6449 4.536C37.1329 5.352 36.6289 6.344 36.1329 7.512H36.2529L36.3489 7.392ZM41.5809 13.08C41.4369 13.32 41.3169 13.536 41.2209 13.728C41.1409 13.904 41.0689 14.048 41.0049 14.16C40.7809 14.704 40.5249 15.168 40.2369 15.552C40.1409 15.68 39.9649 15.92 39.7089 16.272C39.4529 16.624 39.2369 16.976 39.0609 17.328C38.9009 17.664 38.7889 18.016 38.7249 18.384C39.1409 18.4 39.5969 18.344 40.0929 18.216C40.5889 18.088 41.2449 17.888 42.0609 17.616C43.0689 17.28 43.7249 17.08 44.0289 17.016V16.704C43.8689 16.56 43.6609 16.272 43.4049 15.84C43.1489 15.408 42.9969 15.088 42.9489 14.88C42.9969 14.848 43.0529 14.832 43.1169 14.832C43.1809 14.832 43.2609 14.848 43.3569 14.88C43.4529 14.912 43.5569 14.928 43.6689 14.928C44.0049 15.216 44.3889 15.504 44.8209 15.792C45.2529 16.08 45.5409 16.272 45.6849 16.368C46.3409 16.784 46.8929 17.176 47.3409 17.544C47.8049 17.896 48.2289 18.296 48.6129 18.744L48.6369 19.872C48.6369 20.352 48.5969 20.744 48.5169 21.048C48.4529 21.352 48.3089 21.536 48.0849 21.6C47.9249 21.712 47.7169 21.768 47.4609 21.768C47.3649 21.768 47.2049 21.752 46.9809 21.72C46.7249 21.448 46.5009 21.16 46.3089 20.856C46.1329 20.536 45.8929 20.088 45.5889 19.512C45.5089 19.368 45.4369 19.232 45.3729 19.104C45.3089 18.976 45.2449 18.856 45.1809 18.744C45.0209 18.456 44.9089 18.28 44.8449 18.216C44.7809 18.136 44.6129 17.992 44.3409 17.784C44.1809 17.976 43.9489 18.152 43.6449 18.312C43.3409 18.456 42.9489 18.624 42.4689 18.816C41.9889 19.008 41.6209 19.176 41.3649 19.32L40.7409 19.536C40.6289 19.584 40.4369 19.656 40.1649 19.752C39.9089 19.848 39.7009 19.944 39.5409 20.04C39.0129 20.344 38.2769 20.632 37.3329 20.904C36.6449 21.112 36.0849 21.312 35.6529 21.504C35.2209 21.696 34.8369 21.968 34.5009 22.32C34.4529 22.304 34.4049 22.288 34.3569 22.272C34.3249 22.256 34.2849 22.24 34.2369 22.224C34.0929 21.728 33.9009 21.296 33.6609 20.928C33.4849 20.64 33.3489 20.376 33.2529 20.136C33.1729 19.896 33.1169 19.592 33.0849 19.224L33.3489 19.2C33.5569 19.088 33.8209 19.016 34.1409 18.984C34.4769 18.936 34.6769 18.904 34.7409 18.888C35.1729 18.84 35.4929 18.792 35.7009 18.744C35.9089 18.696 36.0929 18.616 36.2529 18.504L36.7809 17.976C36.8929 17.88 36.9729 17.768 37.0209 17.64C37.0849 17.496 37.1889 17.232 37.3329 16.848C37.7009 15.968 38.0689 14.744 38.4369 13.176C38.8209 11.592 39.0289 10.288 39.0609 9.264C38.9649 9.184 38.9169 9.104 38.9169 9.024C38.9169 8.912 38.9969 8.744 39.1569 8.52C39.2529 8.344 39.3249 8.208 39.3729 8.112C39.4209 8 39.4289 7.888 39.3969 7.776C39.6049 7.696 39.7809 7.656 39.9249 7.656C40.1009 7.656 40.3249 7.696 40.5969 7.776L41.2929 7.92C41.8369 8.352 42.4209 8.664 43.0449 8.856C43.1409 8.952 43.2209 9.064 43.2849 9.192C43.3649 9.32 43.4289 9.416 43.4769 9.48C43.3809 9.928 43.2209 10.36 42.9969 10.776C42.7729 11.192 42.4609 11.712 42.0609 12.336L41.5809 13.08ZM42.7569 9.072C42.7249 9.056 42.7009 9.04 42.6849 9.024C42.6689 9.008 42.6369 8.984 42.5889 8.952C42.6049 8.968 42.6129 8.992 42.6129 9.024C42.6289 9.04 42.6769 9.056 42.7569 9.072ZM40.8369 9.72C40.7889 9.816 40.6689 10.032 40.4769 10.368C40.3009 10.688 40.2129 10.976 40.2129 11.232C40.2129 11.328 40.2209 11.4 40.2369 11.448V11.544H40.4049C40.4209 11.528 40.5249 11.4 40.7169 11.16C40.7489 11.128 40.8209 11.04 40.9329 10.896C41.0609 10.736 41.1409 10.592 41.1729 10.464C41.2209 10.336 41.2289 10.216 41.1969 10.104C41.1329 9.944 41.0929 9.856 41.0769 9.84C41.0609 9.824 40.9809 9.784 40.8369 9.72ZM39.3969 15.024C40.1969 13.936 40.5969 13.16 40.5969 12.696C40.5969 12.6 40.5729 12.504 40.5249 12.408L40.1649 12.912C39.7809 13.424 39.4769 13.88 39.2529 14.28C39.0449 14.664 38.9169 15.072 38.8689 15.504H39.0609L39.3969 15.024ZM44.1489 16.176C44.2289 16.272 44.3089 16.416 44.3889 16.608C44.4689 16.784 44.5489 16.936 44.6289 17.064H44.7249V16.896C44.6929 16.864 44.6609 16.784 44.6289 16.656C44.6129 16.528 44.5889 16.416 44.5569 16.32L44.1489 16.176ZM42.2049 17.832C42.2049 17.912 42.2129 17.952 42.2289 17.952C42.2449 17.936 42.2929 17.928 42.3729 17.928V17.832H42.2049ZM39.4929 19.08H39.6609C39.9009 18.872 40.1729 18.744 40.4769 18.696V18.576H40.1649C40.0529 18.704 39.8129 18.816 39.4449 18.912H39.4929V19.08ZM34.1169 20.04C34.2129 19.976 34.3249 19.888 34.4529 19.776C34.5809 19.664 34.6929 19.584 34.7889 19.536V19.44H34.5969C34.3889 19.584 34.0929 19.656 33.7089 19.656L33.8289 19.92C33.8929 19.968 33.9889 20.008 34.1169 20.04ZM46.7649 20.472C46.8129 20.52 46.8609 20.552 46.9089 20.568C46.9729 20.584 47.0209 20.6 47.0529 20.616C47.0049 20.552 46.9569 20.488 46.9089 20.424C46.8609 20.344 46.8129 20.272 46.7649 20.208V20.472ZM37.1889 20.736H37.0929C37.0929 20.736 37.0289 20.752 36.9009 20.784V20.88H37.0929L37.1889 20.736ZM76.1409 18.264C76.1409 18.36 76.1329 18.456 76.1169 18.552C76.1009 18.648 76.0929 18.744 76.0929 18.84C75.8689 18.92 75.6209 18.96 75.3489 18.96C75.1889 18.96 74.9489 18.944 74.6289 18.912C74.2449 18.848 73.9409 18.824 73.7169 18.84L67.8129 18.936C67.8129 19.016 67.8289 19.216 67.8609 19.536C67.9089 20.496 67.9329 21.04 67.9329 21.168C67.9329 22.384 67.7489 23.024 67.3809 23.088C67.2209 23.056 66.9009 23.12 66.4209 23.28C66.0369 23.408 65.7569 23.48 65.5809 23.496L65.5089 23.424C65.5089 23.008 65.5009 22.624 65.4849 22.272C65.4689 21.936 65.4529 21.64 65.4369 21.384L65.3649 18.984C64.5649 19 63.3809 19.008 61.8129 19.008C60.2769 19.008 59.1169 19.016 58.3329 19.032C58.1569 18.984 58.0209 18.872 57.9249 18.696C57.8289 18.504 57.7329 18.272 57.6369 18H57.9249C58.0369 18.064 58.1649 18.096 58.3089 18.096C58.4209 18.096 58.5489 18.08 58.6929 18.048C58.8529 18.016 58.9729 17.992 59.0529 17.976C59.3249 17.896 59.5649 17.856 59.7729 17.856C59.8529 17.856 59.9169 17.864 59.9649 17.88C60.3329 17.944 60.8609 17.976 61.5489 17.976C62.3809 17.976 63.1729 17.952 63.9249 17.904L64.9089 17.88C65.0529 17.656 65.1489 17.448 65.1969 17.256C65.2449 17.064 65.2689 16.832 65.2689 16.56L65.2449 15.72H63.5649C63.3729 15.72 63.1329 15.72 62.8449 15.72C62.5729 15.704 62.2449 15.704 61.8609 15.72C61.3489 15.96 60.8289 16.08 60.3009 16.08C60.1249 16.08 59.9969 16.072 59.9169 16.056C59.6449 15.528 59.5089 14.432 59.5089 12.768L59.5329 10.8C59.5489 10.448 59.5569 9.992 59.5569 9.432V8.688C59.5569 8.32 59.5809 8.016 59.6289 7.776C59.6769 7.536 59.7809 7.376 59.9409 7.296C60.0529 7.232 60.1969 7.2 60.3729 7.2C60.6769 7.2 60.9889 7.256 61.3089 7.368C61.6289 7.48 61.8129 7.544 61.8609 7.56C62.0529 7.608 62.2689 7.632 62.5089 7.632C62.7969 7.632 63.2609 7.584 63.9009 7.488C64.5889 7.408 64.9889 7.368 65.1009 7.368C65.0849 7.192 65.0929 6.896 65.1249 6.48L65.1489 5.736C65.1489 5.256 65.1009 4.904 65.0049 4.68C63.7569 4.808 62.4129 4.912 60.9729 4.992C60.7489 5.072 60.4049 5.16 59.9409 5.256C59.4769 5.336 59.2049 5.368 59.1249 5.352C58.9649 5.288 58.8449 5.2 58.7649 5.088C58.7009 4.96 58.6609 4.776 58.6449 4.536C58.7889 4.488 58.9409 4.448 59.1009 4.416C59.4369 4.4 59.9729 4.344 60.7089 4.248C61.1889 4.12 61.6769 4.04 62.1729 4.008C62.6689 3.976 63.3729 3.952 64.2849 3.936H64.9809C65.0289 3.792 65.0529 3.544 65.0529 3.192C65.0529 2.872 65.0449 2.632 65.0289 2.472L65.0049 1.776C64.9409 1.712 64.9089 1.592 64.9089 1.416L64.9329 0.912C65.1249 0.815999 65.4529 0.767999 65.9169 0.767999L66.8529 0.912C66.9649 0.927999 67.1169 0.951999 67.3089 0.983999C67.5009 0.999999 67.6689 1.024 67.8129 1.056C67.8289 1.088 67.8529 1.136 67.8849 1.2C67.9169 1.264 67.9329 1.384 67.9329 1.56C67.6929 1.688 67.5249 1.848 67.4289 2.04C67.3489 2.232 67.3089 2.48 67.3089 2.784C67.3089 2.928 67.3249 3.272 67.3569 3.816L71.4609 3.744C71.5889 3.504 71.7729 3.312 72.0129 3.168C72.2529 3.008 72.5329 2.928 72.8529 2.928C72.9329 3.008 73.0769 3.136 73.2849 3.312C73.5089 3.472 73.6849 3.656 73.8129 3.864C73.9409 4.056 74.0129 4.28 74.0289 4.536C73.9009 4.536 73.7649 4.552 73.6209 4.584C73.4769 4.6 73.3409 4.608 73.2129 4.608C73.1329 4.56 72.9889 4.536 72.7809 4.536C72.6529 4.536 72.5249 4.544 72.3969 4.56C72.2689 4.576 72.1409 4.584 72.0129 4.584L71.7729 4.56C71.5329 4.512 71.2689 4.488 70.9809 4.488C70.5169 4.488 69.9809 4.528 69.3729 4.608C69.2449 4.624 68.9729 4.648 68.5569 4.68C68.1409 4.712 67.7889 4.72 67.5009 4.704L67.5489 7.2C68.1409 7.2 68.5729 7.208 68.8449 7.224C69.0369 7.224 69.2769 7.232 69.5649 7.248C69.8529 7.248 70.1889 7.24 70.5729 7.224C70.6049 7.176 70.6769 7.04 70.7889 6.816C70.9009 6.592 71.0289 6.408 71.1729 6.264C71.3329 6.12 71.5009 6.04 71.6769 6.024C71.7569 5.96 71.8929 5.928 72.0849 5.928C72.3409 5.928 72.6209 5.992 72.9249 6.12C73.2289 6.232 73.4209 6.352 73.5009 6.48V8.256C73.5009 10.192 73.4929 11.648 73.4769 12.624C73.4929 12.736 73.5089 12.936 73.5249 13.224C73.5569 13.512 73.5729 13.752 73.5729 13.944C73.5729 14.264 73.5249 14.496 73.4289 14.64C73.2049 15.424 72.6449 15.816 71.7489 15.816C71.4929 15.816 71.1889 15.776 70.8369 15.696L67.7649 15.744L67.7889 17.688C68.3489 17.672 69.2529 17.68 70.5009 17.712L72.7569 17.736L74.0769 17.712C74.2049 17.472 74.3569 17.296 74.5329 17.184C74.7249 17.056 74.9809 16.992 75.3009 16.992C75.7169 17.552 75.9969 17.944 76.1409 18.168V18.264ZM65.7489 1.848C65.7489 2.168 65.7729 2.36 65.8209 2.424C65.8849 2.248 65.9329 2.04 65.9649 1.8C66.0129 1.56 66.0449 1.384 66.0609 1.272H65.7489V1.848ZM66.5649 3.792L66.6849 3.768L66.7329 3.696C66.7169 3.664 66.6929 3.608 66.6609 3.528C66.6289 3.432 66.5889 3.36 66.5409 3.312L66.5649 3.792ZM66.8529 3.696H66.9249V3.576H66.8529V3.696ZM66.8289 4.728C66.7809 5.352 66.7569 5.768 66.7569 5.976C66.7569 6.504 66.8129 6.88 66.9249 7.104C66.9089 6.8 66.9009 6.528 66.9009 6.288C66.9169 6.048 66.9249 5.848 66.9249 5.688C66.9409 5.48 66.9489 5.16 66.9489 4.728H66.8289ZM72.6369 6.672C72.6849 6.864 72.7249 7.04 72.7569 7.2C72.8049 7.36 72.8529 7.52 72.9009 7.68L72.9249 6.816L72.8769 6.744V6.672H72.6369ZM70.3329 7.728C70.2209 7.808 69.9969 7.848 69.6609 7.848C69.4049 7.848 69.1729 7.84 68.9649 7.824C68.7729 7.808 68.6049 7.792 68.4609 7.776C68.1889 7.728 67.9489 7.704 67.7409 7.704L67.7889 10.536L70.9089 10.464L70.8849 8.928C70.8849 8.464 70.9089 8.064 70.9569 7.728H70.3329ZM66.7809 9.504C66.6849 9.712 66.6529 10.088 66.6849 10.632L66.9249 10.608L66.8769 7.848H66.7569L66.7809 9.504ZM61.0929 8.688C61.1569 8.56 61.1809 8.432 61.1649 8.304C61.1649 8.176 61.1649 8.08 61.1649 8.016L61.0929 7.944H60.8289C60.8289 8.056 60.8449 8.208 60.8769 8.4C60.9249 8.576 60.9569 8.72 60.9729 8.832H61.0929V8.688ZM61.7889 8.424C61.7089 8.584 61.6689 8.832 61.6689 9.168C61.6689 9.536 61.7249 10.088 61.8369 10.824C62.2849 10.824 62.7889 10.808 63.3489 10.776C63.9089 10.744 64.3089 10.72 64.5489 10.704L65.2209 10.656H65.1489L65.1009 7.992C64.6689 8.008 64.1329 8.064 63.4929 8.16C63.4289 8.176 63.3169 8.184 63.1569 8.184C63.0129 8.184 62.8689 8.176 62.7249 8.16C62.5809 8.144 62.4369 8.136 62.2929 8.136C62.1009 8.136 61.9569 8.152 61.8609 8.184C61.8609 8.232 61.8449 8.28 61.8129 8.328C61.7969 8.376 61.7889 8.408 61.7889 8.424ZM67.8129 11.4C67.7329 11.672 67.6929 12.064 67.6929 12.576C67.6929 12.848 67.7089 13.256 67.7409 13.8C67.7729 14.344 67.7889 14.72 67.7889 14.928C68.0449 14.992 68.3809 15.024 68.7969 15.024C68.9249 15.024 69.5169 15 70.5729 14.952C70.5729 14.888 70.5809 14.84 70.5969 14.808C70.6129 14.76 70.6209 14.728 70.6209 14.712C70.5889 14.6 70.5729 14.416 70.5729 14.16C70.5729 13.808 70.6129 13.376 70.6929 12.864C70.7889 12.16 70.8289 11.656 70.8129 11.352L67.8129 11.4ZM65.2929 14.928L65.2449 11.4C64.4929 11.4 63.9249 11.392 63.5409 11.376C63.3489 11.376 63.1089 11.376 62.8209 11.376C62.5489 11.36 62.2209 11.36 61.8369 11.376V12.264C61.8369 12.424 61.8449 12.824 61.8609 13.464C61.8769 14.104 61.9169 14.624 61.9809 15.024L65.2209 14.976L65.2929 14.928ZM66.7329 11.544C66.6689 11.672 66.6369 11.976 66.6369 12.456C66.6369 13.016 66.6689 13.68 66.7329 14.448L66.7569 14.952L66.8049 15.024H67.0449C67.0289 14.8 67.0209 14.6 67.0209 14.424C67.0369 14.232 67.0449 14.072 67.0449 13.944C67.0609 13.752 67.0689 13.472 67.0689 13.104C67.0689 12.336 67.0049 11.8 66.8769 11.496C66.7809 11.528 66.7329 11.544 66.7329 11.544ZM72.3009 13.272C72.2689 13.432 72.2209 13.544 72.1569 13.608C72.0929 13.656 71.9969 13.696 71.8689 13.728C71.7569 13.744 71.6769 13.784 71.6289 13.848H71.6769C71.7569 13.88 71.9889 13.896 72.3729 13.896C72.3729 13.56 72.3489 13.352 72.3009 13.272ZM72.0609 14.736C72.1409 14.768 72.1969 14.784 72.2289 14.784C72.2769 14.784 72.3329 14.76 72.3969 14.712L72.0609 14.736ZM61.0929 15.12C61.1409 15.024 61.1569 14.896 61.1409 14.736H61.0209C60.9729 14.8 60.9169 14.832 60.8529 14.832C60.8049 14.832 60.7569 14.824 60.7089 14.808C60.6609 14.792 60.6209 14.776 60.5889 14.76V15.384H60.7089C60.7409 15.336 60.7969 15.296 60.8769 15.264C60.9729 15.232 61.0449 15.184 61.0929 15.12ZM66.8049 15.768C66.8369 16.008 66.8689 16.368 66.9009 16.848L66.9729 17.64H67.0929L67.0689 15.768H66.8049ZM74.8929 17.952C74.8929 17.952 74.9329 17.968 75.0129 18C74.9809 17.984 74.9569 17.976 74.9409 17.976C74.9249 17.976 74.9089 17.968 74.8929 17.952ZM67.0689 19.008C67.0689 19.36 67.0929 19.576 67.1409 19.656C67.1409 19.576 67.1329 19.464 67.1169 19.32C67.1009 19.16 67.0849 19.056 67.0689 19.008ZM65.9889 22.8C66.0849 22.8 66.2129 22.76 66.3729 22.68L66.3489 21.84C66.2529 21.84 66.1889 21.832 66.1569 21.816C66.1249 21.816 66.0849 21.824 66.0369 21.84C65.8929 22 65.8369 22.24 65.8689 22.56C65.8689 22.64 65.9089 22.72 65.9889 22.8Z" fill="#F3E9D8"/>
</svg>
