<svg width="80" height="80" viewBox="0 0 80 80" fill="none" xmlns="http://www.w3.org/2000/svg">
<path d="M9.97649 58.3445C10.0977 58.4043 10.2795 58.5014 10.5219 58.6359C10.7794 58.7554 10.984 58.8824 11.1355 59.0168C11.3021 59.1363 11.4309 59.2857 11.5218 59.465C11.9915 60.1522 12.3854 60.9589 12.7035 61.8852C13.0217 62.8114 13.1808 63.7376 13.1808 64.6639C13.1808 65.2465 13.0974 65.8291 12.9308 66.4118V67.2857C12.8702 67.4351 12.749 67.6144 12.5672 67.8235C12.3854 68.0327 12.2642 68.1671 12.2036 68.2269C12.0672 68.4062 11.893 68.69 11.6809 69.0784C11.4991 69.422 11.3249 69.7059 11.1582 69.93C11.0067 70.1541 10.8249 70.3483 10.6128 70.5126C10.0674 70.9907 9.43866 71.3641 8.7266 71.6331C8.01454 71.902 7.0525 72.2007 5.84049 72.5294C4.77997 72.8431 3.85581 73 3.068 73C2.49229 73 1.94689 72.9253 1.43178 72.7759C1.43178 72.7162 1.41663 72.6489 1.38633 72.5742C1.37118 72.4995 1.3636 72.4323 1.3636 72.3726C1.46966 72.3726 1.67418 72.3128 1.97719 72.1933C2.28019 72.0588 2.43927 71.9617 2.45442 71.902V61.9972C2.45442 61.5938 2.46199 61.1158 2.47714 60.563C2.49229 60.0103 2.50744 59.5845 2.52259 59.2857C2.55289 58.8973 2.56804 58.606 2.56804 58.4118C2.46199 58.3669 2.32564 58.3221 2.15899 58.2773L2.09081 58.2549C2.01506 58.2549 1.90144 58.2773 1.74993 58.3221C1.59843 58.3669 1.49238 58.3744 1.43178 58.3445C1.24998 58.2848 1.12878 58.2026 1.06818 58.098C1.02273 57.9785 1 57.7768 1 57.493C1.16665 57.4482 1.37118 57.4258 1.61358 57.4258L2.40897 57.4482C2.45442 57.4332 2.57562 57.4258 2.77257 57.4258C2.96952 57.4108 3.10588 57.381 3.18163 57.3361C3.39373 57.3511 3.81036 57.3585 4.43152 57.3585C5.43143 57.3585 6.22682 57.3884 6.81767 57.4482C6.95403 57.4482 7.31006 57.4108 7.88576 57.3361C8.14332 57.366 8.37814 57.4332 8.59025 57.5378C8.80235 57.6424 9.06748 57.7918 9.38563 57.986C9.68864 58.1802 9.88559 58.2997 9.97649 58.3445ZM4.09064 58.9272C4.16639 58.8525 4.23457 58.7404 4.29517 58.591C4.35577 58.4267 4.37092 58.2997 4.34062 58.2101C4.34062 58.2101 4.29517 58.1951 4.20427 58.1653C4.15882 58.2997 4.12094 58.4267 4.09064 58.5462C4.06034 58.6657 4.02246 58.7927 3.97701 58.9272L4.04519 58.9944L4.09064 58.9272ZM7.24945 58.2773C7.37066 58.2773 7.47671 58.2923 7.56761 58.3221C7.65851 58.3371 7.74941 58.3445 7.84031 58.3445V58.2101L7.77214 58.1653H7.29491L7.24945 58.2773ZM10.4992 65.5602C10.5446 65.3511 10.5673 65.1494 10.5673 64.9552C10.5673 64.5219 10.4992 64.1036 10.3628 63.7003C10.2416 63.282 10.1659 63.028 10.1356 62.9384C10.1053 62.8338 10.075 62.7442 10.0447 62.6695C10.0144 62.5948 9.99164 62.5201 9.97649 62.4454C9.74924 61.6984 9.52956 61.1233 9.31746 60.7199C9.10535 60.3165 8.74932 59.9655 8.24937 59.6667C8.05241 59.6069 7.87061 59.5472 7.70396 59.4874C7.55246 59.4127 7.41611 59.3529 7.29491 59.3081C7.21915 59.2633 7.04493 59.1737 6.77222 59.0392C6.51467 58.9048 6.25712 58.7927 5.99956 58.7031C5.75716 58.6134 5.50718 58.5537 5.24963 58.5238C5.24963 58.5836 5.23448 58.6508 5.20418 58.7255C5.18903 58.8002 5.18145 58.8674 5.18145 58.9272C5.18145 61.7059 5.17388 63.7899 5.15873 65.1793L5.136 71.4314H5.0451C5.0148 71.3716 4.97693 71.3268 4.93147 71.2969V71.902C5.65868 71.8721 6.27984 71.6704 6.79495 71.2969C7.32521 70.9085 7.81001 70.408 8.24937 69.7955C8.88567 68.9589 9.37048 68.2493 9.70379 67.6667C10.0522 67.0691 10.3174 66.3669 10.4992 65.5602ZM9.97649 60.2493C9.80984 59.8161 9.45381 59.4575 8.9084 59.1737C8.37814 58.8898 7.77971 58.6732 7.1131 58.5238C7.34036 58.733 7.77214 58.957 8.40844 59.1961C8.8781 59.3753 9.17353 59.5098 9.29473 59.5994C9.41593 59.6592 9.54471 59.8011 9.68106 60.0252C9.81741 60.2344 9.91589 60.3539 9.97649 60.3838C9.97649 60.3539 9.97649 60.3389 9.97649 60.3389C9.99164 60.324 9.99164 60.2941 9.97649 60.2493ZM11.84 62.8263H12.0899C12.0596 62.2736 11.8551 61.676 11.4764 61.0336C11.0976 60.3912 10.6355 59.8385 10.0901 59.3753C9.54471 58.8973 9.02203 58.6284 8.52207 58.5686L8.4539 58.6359C8.49935 58.6657 8.52207 58.7106 8.52207 58.7703C9.20383 59.0243 9.84771 59.5472 10.4537 60.3389C11.0749 61.1158 11.537 61.9225 11.84 62.7591V62.8263ZM3.04528 59.465C3.04528 59.6741 3.07558 59.8161 3.13618 59.8908C3.13618 59.6965 3.10588 59.5546 3.04528 59.465ZM3.84066 60.2493C3.94671 60.085 3.99974 59.9206 3.99974 59.7563C3.99974 59.6667 3.99216 59.5994 3.97701 59.5546H3.84066C3.81036 59.6592 3.78764 59.7937 3.77249 59.958C3.75734 60.1223 3.76491 60.2194 3.79521 60.2493V60.2941L3.84066 60.2493ZM3.61341 63.7003C3.62856 63.6256 3.64371 63.5359 3.65886 63.4314C3.67401 63.3119 3.69673 63.1849 3.72703 63.0504H3.47706C3.47706 63.1699 3.48463 63.2895 3.49978 63.409C3.53008 63.5285 3.54523 63.648 3.54523 63.7675L3.61341 63.7003ZM3.47706 64.1261C3.50736 64.0812 3.52251 64.0439 3.52251 64.014C3.52251 63.9841 3.50736 63.9468 3.47706 63.902C3.47706 63.9617 3.46191 64.0215 3.43161 64.0812C3.41646 64.1261 3.40888 64.1783 3.40888 64.2381H3.47706V64.1261ZM4.81785 69.3249C4.8027 69.4146 4.79512 69.5714 4.79512 69.7955C4.79512 70.1839 4.84057 70.4678 4.93147 70.6471C4.96178 70.2885 4.97693 70.0644 4.97693 69.9748C4.97693 69.6909 4.9239 69.4743 4.81785 69.3249Z" fill="#F3E9D8"/>
<path d="M26.401 71.7675C26.4465 71.887 26.4995 71.9468 26.5601 71.9468H26.6283L26.5601 71.9916C26.4237 72.1261 26.0298 72.253 25.3784 72.3726C24.7421 72.4921 24.1436 72.5518 23.5831 72.5518C23.068 72.5518 22.7498 72.4995 22.6286 72.395C22.3711 71.7227 22.2044 71.3492 22.1287 71.2745C21.356 71.7227 20.5076 71.9468 19.5834 71.9468C18.735 71.9468 18.023 71.7526 17.4473 71.3641C16.8715 70.9608 16.5837 70.3931 16.5837 69.6611C16.5837 69.3772 16.6291 69.0784 16.72 68.7647C17.0988 67.4949 17.7881 66.4715 18.788 65.6947C19.788 64.9029 21.1136 64.5444 22.765 64.619L22.8559 64.5742C22.8862 64.0663 22.9013 63.6853 22.9013 63.4314C22.9013 62.9533 22.8483 62.5873 22.7422 62.3333C22.6968 62.3184 22.3408 62.1839 21.6742 61.93C21.4015 61.8852 21.1439 61.8627 20.9015 61.8627C20.4015 61.8627 19.9698 61.9449 19.6062 62.1092C19.2425 62.2736 18.8108 62.5126 18.3108 62.8263C17.7806 63.155 17.417 63.3641 17.22 63.4538L16.7655 63.2521C17.4018 62.6247 18.0836 62.0868 18.8108 61.6387C19.538 61.1905 20.3788 60.8245 21.3333 60.5406C21.4999 60.4809 21.6893 60.451 21.9014 60.451C22.0529 60.451 22.2953 60.4809 22.6286 60.5406C22.6892 60.5556 22.7725 60.5705 22.8786 60.5854C22.9846 60.6004 23.1134 60.6078 23.2649 60.6078C23.477 60.7722 23.7876 60.9664 24.1967 61.1905C24.5754 61.4146 24.8633 61.6013 25.0602 61.7507C25.2723 61.9001 25.439 62.1018 25.5602 62.3557C25.7117 62.7143 25.7874 63.1326 25.7874 63.6106C25.7874 63.9393 25.7496 64.3053 25.6738 64.7087C25.6132 65.112 25.545 65.4855 25.4693 65.8291C25.3935 66.1578 25.3556 66.3296 25.3556 66.3445C25.2496 66.8077 25.1966 67.3081 25.1966 67.8459C25.1966 68.3091 25.2572 69.0336 25.3784 70.0196C25.4693 70.8114 25.5223 71.3866 25.5375 71.7451L26.401 71.7675ZM23.924 64.5518C23.9088 64.5817 23.8785 64.6489 23.8331 64.7535C23.7876 64.8581 23.78 64.9925 23.8103 65.1569L23.924 64.5518ZM22.7422 70.0644C22.8028 69.9599 22.8331 69.803 22.8331 69.5938C22.8331 69.4295 22.818 69.2353 22.7877 69.0112C22.7725 68.7871 22.7574 68.6228 22.7422 68.5182C22.7271 68.3688 22.7195 68.1522 22.7195 67.8683V67.0168C22.7195 66.3595 22.6513 65.8515 22.515 65.493H22.1514C21.9393 65.6424 21.7802 65.747 21.6742 65.8067C21.4318 65.9561 21.2499 66.0756 21.1287 66.1653C20.4924 66.6583 20.0304 67.1811 19.7425 67.7339C19.4698 68.2717 19.3334 68.8992 19.3334 69.6162C19.3334 70.0345 19.3789 70.5051 19.4698 71.028C19.5304 71.0579 19.5986 71.1027 19.6743 71.1625C19.7501 71.2073 19.8334 71.2372 19.9243 71.2521C20.0152 71.267 20.1516 71.2745 20.3334 71.2745C20.4243 71.2297 20.697 71.1251 21.1515 70.9608C21.5908 70.8263 21.9469 70.6919 22.2196 70.5574C22.4923 70.423 22.6665 70.2586 22.7422 70.0644ZM17.47 68.1373H17.3109C17.3412 68.212 17.3563 68.2642 17.3563 68.2941C17.3563 68.3091 17.3639 68.324 17.3791 68.3389C17.4094 68.3389 17.4473 68.3539 17.4927 68.3838L17.47 68.1373ZM18.2654 69.5266C18.2199 69.8403 18.1972 70.042 18.1972 70.1317C18.1972 70.3408 18.2275 70.4827 18.2881 70.5574L18.3108 69.8627C18.3108 69.6835 18.2957 69.5714 18.2654 69.5266ZM24.5148 69.5266H24.4466C24.4466 69.6461 24.4391 69.7731 24.4239 69.9076C24.4088 70.0271 24.4012 70.1391 24.4012 70.2437C24.4012 70.3782 24.4239 70.5126 24.4694 70.6471H24.5603L24.5148 69.5266ZM17.5154 70.7143H17.22C17.2654 70.7442 17.3033 70.774 17.3336 70.8039C17.3791 70.8189 17.4473 70.8338 17.5382 70.8487L17.5154 70.7143ZM24.583 70.9384H24.4921V71.0504H24.583V70.9384ZM18.5835 71.4986C18.4775 71.4986 18.3108 71.4613 18.0836 71.3866C18.1139 71.4463 18.1442 71.4911 18.1745 71.521C18.2048 71.5509 18.2199 71.5808 18.2199 71.6106H18.5835V71.4986ZM23.2195 71.4762C23.2952 71.5509 23.3407 71.6032 23.3558 71.6331C23.3861 71.648 23.4164 71.6181 23.4467 71.5434H23.3785C23.3634 71.5285 23.3483 71.521 23.3331 71.521C23.3179 71.521 23.2801 71.5061 23.2195 71.4762Z" fill="#F3E9D8"/>
<path d="M35.8652 64.4398C36.5015 64.4248 37.1151 64.6116 37.706 65C38.312 65.3735 38.8043 65.8665 39.1831 66.479C39.5619 67.0766 39.7512 67.6891 39.7512 68.3165C39.7512 68.69 39.6906 69.0187 39.5694 69.3025C39.4179 69.676 39.1831 70.0868 38.8649 70.535C38.5619 70.9683 38.2665 71.2969 37.9787 71.521C37.7817 71.6405 37.4636 71.7302 37.0242 71.7899C36.8272 71.8049 36.6 71.8497 36.3424 71.9244C35.494 72.1634 34.6911 72.3651 33.9336 72.5294C33.176 72.6788 32.4337 72.7535 31.7065 72.7535C30.9035 72.7535 30.2369 72.6415 29.7067 72.4174C29.6764 72.3427 29.6385 72.2007 29.593 71.9916C29.6688 71.9468 29.8203 71.9244 30.0475 71.9244C30.1081 71.8945 30.2748 71.8796 30.5475 71.8796C30.5475 70.281 30.5626 67.9132 30.5929 64.7759C30.6232 61.6088 30.6384 59.2409 30.6384 57.6723H30.4793C30.2824 57.6723 30.1233 57.6573 30.0021 57.6275C29.9718 57.5826 29.9339 57.5229 29.8885 57.4482C29.843 57.3585 29.8051 57.2465 29.7748 57.112H29.8885C30.0097 57.0373 30.1763 57 30.3884 57C30.5854 57 30.7975 57.0224 31.0247 57.0672C31.1005 57.0822 31.1914 57.0971 31.2974 57.112C31.4186 57.127 31.555 57.1345 31.7065 57.1345C31.8428 57.1345 31.9413 57.127 32.0019 57.112C32.3655 57.0523 32.7064 57.0224 33.0245 57.0224C33.5397 57.0224 33.9336 57.0672 34.2063 57.1569C34.3275 57.2017 34.4335 57.2241 34.5244 57.2241C34.6456 57.2241 34.8123 57.1942 35.0244 57.1345C35.2365 57.0747 35.3804 57.0448 35.4562 57.0448L35.5698 57.1569L36.047 57.2465C36.3652 57.2764 36.6227 57.3361 36.8197 57.4258C37.0924 57.5303 37.3348 57.6872 37.5469 57.8964C37.759 58.1055 37.9862 58.3595 38.2286 58.6583C38.5922 59.0616 38.774 59.2633 38.774 59.2633C38.7892 59.4127 38.7968 59.6144 38.7968 59.8683C38.7968 60.4062 38.721 60.8618 38.5695 61.2353C38.4332 61.5938 38.2589 61.8852 38.0468 62.1092C37.8499 62.3333 37.5772 62.5798 37.2287 62.8487C36.8651 63.1475 36.5773 63.4015 36.3652 63.6106C36.1682 63.8198 36.0016 64.0962 35.8652 64.4398ZM36.6833 58.098C36.5318 57.9337 36.2591 57.8515 35.8652 57.8515C35.8652 57.9262 35.8652 57.9785 35.8652 58.0084C35.8804 58.0383 35.9031 58.0682 35.9334 58.098C36.0394 58.1877 36.1909 58.2997 36.3879 58.4342C36.5848 58.5686 36.6833 58.6284 36.6833 58.6134C36.7136 58.4939 36.7288 58.3595 36.7288 58.2101H36.8197L36.6833 58.098ZM32.9109 60.0028C32.7443 61.0635 32.6609 62.1466 32.6609 63.2521C32.6609 63.8347 32.6988 64.3352 32.7746 64.7535H32.9109C33.0927 64.7983 33.3579 64.7386 33.7063 64.5742C34.0548 64.395 34.3047 64.2232 34.4562 64.0588C34.8501 63.6853 35.2289 63.1475 35.5925 62.4454C35.9713 61.7432 36.1606 61.0486 36.1606 60.3613C36.1606 59.9729 36.0849 59.6069 35.9334 59.2633C35.7667 58.845 35.5016 58.5612 35.138 58.4118C34.7895 58.2624 34.3123 58.1877 33.7063 58.1877L32.9791 58.2101C32.9639 58.24 32.9412 58.2698 32.9109 58.2997C32.8806 58.3147 32.8503 58.3595 32.82 58.4342C32.7746 58.5387 32.7518 58.6508 32.7518 58.7703C32.7518 58.8898 32.7821 59.0691 32.8427 59.3081C32.9033 59.6069 32.9261 59.8385 32.9109 60.0028ZM37.4105 58.6134H37.2287C37.2287 58.6284 37.2287 58.6657 37.2287 58.7255C37.2439 58.7703 37.2817 58.8077 37.3424 58.8375V58.7703C37.3575 58.7554 37.3651 58.7479 37.3651 58.7479C37.3651 58.733 37.3802 58.7031 37.4105 58.6583V58.6134ZM32.2292 59.3081C32.1989 59.2782 32.161 59.2633 32.1155 59.2633C32.1307 59.3231 32.1383 59.3679 32.1383 59.3978C32.1383 59.4276 32.1686 59.4575 32.2292 59.4874V59.3081ZM32.1155 59.6667C32.0701 59.8161 32.0474 59.9655 32.0474 60.1148C32.0474 60.2194 32.0701 60.3165 32.1155 60.4062C32.1155 60.3016 32.1231 60.212 32.1383 60.1373C32.1534 60.0476 32.161 59.9655 32.161 59.8908C32.161 59.7862 32.1458 59.7115 32.1155 59.6667ZM32.1155 64.7535C32.1913 64.4846 32.2292 63.9991 32.2292 63.2969C32.2292 62.535 32.1913 61.6685 32.1155 60.6975H32.0474V60.7423C31.8807 61.0112 31.7974 62.3856 31.7974 64.8655C31.9034 64.8655 31.964 64.8655 31.9792 64.8655C32.0095 64.8655 32.0549 64.8282 32.1155 64.7535ZM36.6151 65.3361C36.4485 65.2316 36.1606 65.1494 35.7516 65.0896C35.7516 65.1494 35.744 65.2017 35.7289 65.2465C35.7137 65.2764 35.7061 65.3063 35.7061 65.3361C35.797 65.3511 35.9107 65.3735 36.047 65.4034C36.1834 65.4332 36.297 65.4482 36.3879 65.4482C36.4939 65.4482 36.6076 65.4258 36.7288 65.381C36.7288 65.381 36.6909 65.366 36.6151 65.3361ZM36.297 69.9748C36.7363 69.3772 36.956 68.705 36.956 67.958C36.956 67.465 36.85 67.0168 36.6379 66.6134C36.4258 66.1951 36.1303 65.874 35.7516 65.6499C35.6152 65.5752 35.441 65.5229 35.2289 65.493C35.0319 65.4631 34.7744 65.4407 34.4562 65.4258C34.3805 65.4258 34.2366 65.4183 34.0245 65.4034C33.8275 65.3884 33.6609 65.366 33.5245 65.3361C33.4336 65.4407 33.2897 65.5079 33.0927 65.5378C32.9109 65.5677 32.7821 65.5901 32.7064 65.605V65.7171C32.6306 65.8217 32.5928 65.986 32.5928 66.2101C32.5928 66.3147 32.6079 66.4865 32.6382 66.7255C32.6685 66.9944 32.6837 67.2035 32.6837 67.3529C32.6837 67.4874 32.6761 67.5845 32.6609 67.6443C32.5852 67.9729 32.5473 68.4435 32.5473 69.056C32.5473 69.9225 32.6231 70.7591 32.7746 71.5658C32.9109 71.6106 33.0624 71.648 33.2291 71.6779C33.3654 71.5733 33.5472 71.4986 33.7745 71.4538C34.0169 71.409 34.1987 71.3716 34.3199 71.3417C34.8198 71.1027 35.2213 70.8861 35.5243 70.6919C35.8425 70.4977 36.1 70.2586 36.297 69.9748ZM31.4792 71.9244C31.555 71.8049 31.608 71.6853 31.6383 71.5658C31.5929 71.4911 31.5701 71.3716 31.5701 71.2073L31.5929 70.7591C31.5929 70.5798 31.5323 70.4454 31.4111 70.3557C31.4111 70.8936 31.3656 71.4015 31.2747 71.8796L31.3656 71.9244H31.4792Z" fill="#F3E9D8"/>
<path d="M51.4746 71.2297C51.5655 71.1849 51.6489 71.1625 51.7246 71.1625C51.7398 71.1625 51.861 71.1849 52.0882 71.2297V71.4986L52.0201 71.5658L50.6338 71.7899C50.0429 71.9094 49.5506 71.9916 49.1567 72.0364C49.1112 71.9767 49.043 71.9244 48.9521 71.8796C48.8612 71.8198 48.7931 71.7376 48.7476 71.6331C48.687 71.5285 48.6416 71.3716 48.6113 71.1625C48.5961 71.1027 48.5734 71.028 48.5431 70.9384C48.5279 70.8338 48.5052 70.7516 48.4749 70.6919V70.8263C48.278 71.0205 48.0734 71.2446 47.8613 71.4986C47.4523 71.9468 47.2477 72.1709 47.2477 72.1709C46.869 72.1858 46.5054 72.1709 46.1569 72.1261C45.8236 72.0663 45.4373 71.9841 44.9979 71.8796L44.5207 71.7675C44.3995 71.5882 44.301 71.4538 44.2253 71.3641C44.1041 71.1998 43.9904 71.028 43.8844 70.8487C43.7783 70.6545 43.7026 70.4678 43.6571 70.2885V68.4286C43.6571 66.606 43.7632 64.7162 43.9753 62.7591L43.9298 62.7143C43.8389 62.7292 43.7329 62.7591 43.6117 62.8039C43.5056 62.8338 43.3844 62.8487 43.2481 62.8487C43.2481 62.774 43.2329 62.6844 43.2026 62.5798C43.1723 62.4603 43.1572 62.3707 43.1572 62.3109C43.7783 62.042 44.3237 61.8329 44.7934 61.6835C45.2631 61.5341 45.7706 61.4295 46.316 61.3697C46.316 61.4295 46.3236 61.4893 46.3387 61.549C46.3539 61.5938 46.3615 61.6387 46.3615 61.6835C46.2705 61.8329 46.2099 61.9897 46.1796 62.1541C46.1645 62.3184 46.1569 62.535 46.1569 62.8039C46.1569 63.0579 46.1342 63.3343 46.0887 63.6331C46.0281 64.141 45.9978 64.8133 45.9978 65.6499C45.9978 66.7404 46.0281 67.8459 46.0887 68.9664C46.1645 70.0868 46.2554 70.8263 46.3615 71.1849C46.4978 71.1849 46.619 71.1923 46.7251 71.2073C46.8463 71.2222 46.9523 71.2297 47.0432 71.2297C47.5886 70.7815 47.9977 70.1914 48.2704 69.4594C48.5431 68.7274 48.7249 67.9505 48.8158 67.1289C48.9067 66.3072 48.9824 65.2465 49.043 63.9468C49.0582 63.4687 49.0961 62.8039 49.1567 61.9524H49.0885C48.9824 62.0719 48.8688 62.169 48.7476 62.2437C48.6416 62.3035 48.4901 62.3408 48.2931 62.3557C48.2325 62.2362 48.187 62.0868 48.1567 61.9076C48.1567 61.9076 48.1719 61.8627 48.2022 61.7731C48.2931 61.7432 48.4219 61.6835 48.5885 61.5938C48.7552 61.4893 48.884 61.4146 48.9749 61.3697C49.3839 61.1307 49.7172 60.9514 49.9748 60.8319C50.2475 60.6975 50.4899 60.6303 50.702 60.6303C50.808 60.6303 50.9065 60.6527 50.9974 60.6975C51.1338 60.7423 51.2095 60.817 51.2247 60.9216C51.255 61.0112 51.2701 61.1232 51.2701 61.2577C51.2701 61.3922 51.2701 61.4967 51.2701 61.5714C51.1186 61.8553 51.0429 62.2661 51.0429 62.8039L51.0656 63.902C51.0656 64.2007 51.0429 64.4995 50.9974 64.7983C50.9671 65.0373 50.952 65.2241 50.952 65.3585C50.952 65.6723 50.9595 65.9113 50.9747 66.0756L50.9974 66.8599C50.9974 67.2633 50.9747 67.5546 50.9292 67.7339L50.8611 68.4734C50.8308 68.7274 50.7929 69.056 50.7474 69.4594C50.7171 69.8627 50.6641 70.3333 50.5884 70.8712C50.6187 70.901 50.6793 70.9533 50.7702 71.028C50.8611 71.1027 50.9595 71.155 51.0656 71.1849C51.1716 71.2148 51.308 71.2297 51.4746 71.2297ZM50.1338 61.5042H49.9748C49.9293 61.6387 49.9066 61.7208 49.9066 61.7507C49.9066 61.8852 49.9823 61.9823 50.1338 62.042V61.5042ZM44.8161 62.3557C44.8464 62.3856 44.8692 62.4006 44.8843 62.4006C44.9146 62.4006 44.9373 62.4155 44.9525 62.4454C44.9373 62.4155 44.9222 62.4006 44.907 62.4006C44.8919 62.4006 44.8616 62.3856 44.8161 62.3557Z" fill="#F3E9D8"/>
<path d="M60.9775 65.874C61.2957 66.0084 61.6366 66.1279 62.0002 66.2325C62.4244 66.3669 62.735 66.4865 62.9319 66.591C63.1289 66.6956 63.3107 66.8898 63.4773 67.1737C63.644 67.4426 63.7955 67.8609 63.9318 68.4286C63.9773 68.6527 64 68.8543 64 69.0336C64 69.6162 63.7955 70.1018 63.3864 70.4902C62.9774 70.8637 62.5077 71.1475 61.9774 71.3417C61.4472 71.5359 60.7806 71.7376 59.9776 71.9468C59.8867 71.9767 59.6898 72.0289 59.3868 72.1036C59.205 72.1485 58.9929 72.1709 58.7505 72.1709C58.3111 72.1709 57.849 72.1111 57.3642 71.9916C56.8946 71.8571 56.584 71.7302 56.4325 71.6106C56.4325 71.8347 56.4173 71.9916 56.387 72.0812C56.3719 72.1559 56.3037 72.2232 56.1825 72.2829C56.137 72.3128 56.0916 72.3277 56.0462 72.3277C56.0007 72.3277 55.9477 72.3427 55.8871 72.3726C55.781 72.1634 55.728 71.775 55.728 71.2073L55.7507 69.8627C55.7356 69.8478 55.728 69.7582 55.728 69.5938C55.728 69.3548 55.7431 69.1008 55.7734 68.8319C55.8037 68.5481 55.8416 68.3688 55.8871 68.2941C55.9931 68.2642 56.1068 68.2493 56.228 68.2493C56.3492 68.5033 56.4552 68.7946 56.5461 69.1232C56.7279 69.6611 56.8794 70.0719 57.0006 70.3557C57.137 70.6396 57.3112 70.8637 57.5233 71.028C57.8717 71.282 58.2657 71.409 58.705 71.409C59.2353 71.409 59.7579 71.2745 60.2731 71.0056C60.8033 70.7218 61.2199 70.4753 61.5229 70.2661C61.826 70.042 62.0078 69.9076 62.0684 69.8627C62.0381 69.7881 62.0153 69.7432 62.0002 69.7283C62.0002 69.6984 62.0002 69.6237 62.0002 69.5042C62.1062 69.4146 62.182 69.3249 62.2274 69.2353C62.2729 69.1457 62.3108 69.0112 62.3411 68.8319C62.1896 68.6825 62.0229 68.4809 61.8411 68.2269C61.6441 67.9729 61.4775 67.7787 61.3411 67.6443C61.2048 67.5098 61.0381 67.4127 60.8412 67.3529C60.523 67.2484 60.0534 67.1662 59.4322 67.1064C59.0989 67.0766 58.8186 67.0467 58.5914 67.0168C58.3793 66.972 58.1672 66.8973 57.9551 66.7927C57.3491 66.4939 56.834 66.0383 56.4098 65.4258C55.9855 64.8133 55.7734 64.1559 55.7734 63.4538C55.7734 62.7666 55.9704 62.1391 56.3643 61.5714C56.5158 61.3473 56.6976 61.1681 56.9097 61.0336C57.137 60.8992 57.4324 60.7498 57.796 60.5854C58.205 60.4211 58.5232 60.2568 58.7505 60.0924C59.0232 60.0924 59.614 60.1298 60.523 60.2045C61.129 60.2642 61.5457 60.2941 61.7729 60.2941C62.0305 60.2941 62.2729 60.2717 62.5001 60.2269C62.5153 60.2717 62.538 60.3688 62.5683 60.5182C62.6138 60.6527 62.6365 60.8245 62.6365 61.0336C62.7122 61.1681 62.7501 61.437 62.7501 61.8403C62.7501 62.2736 62.7122 62.6919 62.6365 63.0952C62.5607 63.1102 62.4926 63.1251 62.432 63.1401C62.3865 63.155 62.3108 63.1774 62.2047 63.2073L62.0684 62.7367C61.9926 62.5574 61.9547 62.1914 61.9547 61.6387C61.8184 61.5938 61.6744 61.5117 61.5229 61.3922C61.3714 61.2726 61.2502 61.1755 61.1593 61.1008C60.2806 61.0411 59.6064 61.2428 59.1368 61.7059C58.6671 62.1541 58.4323 62.7516 58.4323 63.4986C58.4323 63.8721 58.5005 64.2754 58.6368 64.7087L59.2731 65.0448C60.2731 65.5378 60.8412 65.8142 60.9775 65.874ZM58.0232 61.9748C58.0838 61.915 58.1672 61.8478 58.2732 61.7731C58.3793 61.6984 58.455 61.6312 58.5005 61.5714V61.5266H58.2051C58.1445 61.5864 58.0763 61.6536 58.0005 61.7283C57.9399 61.788 57.8793 61.8702 57.8187 61.9748H58.0232ZM59.4322 66.3445C60.0534 66.3445 60.4473 66.2923 60.6139 66.1877C60.1897 66.1429 59.6898 66.0383 59.1141 65.874V65.9188C59.1444 65.9337 59.1898 65.9561 59.2504 65.986C59.3262 66.0159 59.3716 66.0607 59.3868 66.1205C59.4019 66.1802 59.4171 66.2549 59.4322 66.3445ZM62.5456 67.1289C62.4092 66.9197 62.2805 66.7703 62.1593 66.6807C62.0532 66.591 61.8865 66.5014 61.6593 66.4118C61.735 66.4865 61.8714 66.5985 62.0684 66.7479C62.2653 66.8973 62.4092 67.0691 62.5001 67.2633H62.5456V67.1289ZM55.5007 69.2577C55.531 69.1531 55.5462 69.056 55.5462 68.9664C55.5765 69.0112 55.5916 69.056 55.5916 69.1008C55.5916 69.1457 55.5992 69.1979 55.6144 69.2577H55.5007Z" fill="#F3E9D8"/>
<path d="M78.2069 14.3372C78.069 13.7151 78 11.9618 78 9.07741L78.0345 3.90244C78.0575 2.94097 78.069 1.69672 78.069 0.169678C78.3218 0.169678 78.5402 0.141403 78.7241 0.0848465C78.908 0.0282898 79.069 4.67259e-08 79.2069 5.2755e-08C79.3908 6.07939e-08 79.5287 0.0565644 79.6207 0.169678C79.7126 0.395905 79.7816 0.593849 79.8276 0.763519C79.8506 0.933189 79.8736 1.18771 79.8966 1.52705C79.8966 1.86639 79.931 2.29056 80 2.79958C79.7241 4.04383 79.5862 6.9848 79.5862 11.6225C79.5862 12.1315 79.6207 15.1856 79.6897 20.7847L79.7586 26.299L79.7586 79.6607L79.3793 79.6607C79.2874 79.7172 79.1954 79.8021 79.1034 79.9152C79.0115 79.9717 78.9195 80 78.8276 80C78.7126 80 78.6092 79.9717 78.5172 79.9152C78.4253 79.8021 78.3218 79.7172 78.2069 79.6607L78.2069 14.3372Z" fill="#F3E9D8"/>
<path d="M38.2807 78.4752C38.8888 78.33 39.6607 78.2376 40.5963 78.198C41.5319 78.1584 42.7716 78.1386 44.3153 78.1386C45.9994 78.1386 47.2624 78.132 48.1045 78.1188C48.4787 78.1848 49.1804 78.2178 50.2096 78.2178C51.3791 78.2178 52.4784 78.198 53.5076 78.1584L56.0337 78.1188C58.6066 78.1188 60.852 78.1122 62.77 78.099C64.688 78.0858 66.3019 78.0726 67.6117 78.0594C71.4945 78.0198 75.2837 78 78.9793 78L78.9793 78.7525C78.6518 78.7525 78.9401 78.8812 78.3788 79L78.3766 79C78.6573 79.132 78.9324 79.368 78.9792 79.5C79.026 79.632 78.9793 79.6832 78.9793 80C72.243 80 65.226 79.9802 58.4896 79.9406C56.2442 79.9274 53.4374 79.9142 50.0692 79.901C46.7011 79.8878 42.7716 79.8812 38.2807 79.8812C38.2807 79.7624 38.2339 79.571 38.1403 79.3069C38.0468 79.0165 38 78.8053 38 78.6733C38.0936 78.6337 38.1403 78.6073 38.1403 78.5941C38.1403 78.5809 38.1871 78.5413 38.2807 78.4752Z" fill="#F3E9D8"/>
<path d="M2.80645 23.8531C2.80645 26.8635 2.83871 31.3792 2.90322 37.4C2.96774 43.35 3 47.7948 3 50.7344H2.56451C2.33871 50.9115 1.96774 51 1.45161 51C0.967742 51 0.48387 50.9115 0 50.7344V43.4031C0.419354 42.6594 0.629033 41.349 0.629033 39.4719C0.629033 38.8698 0.548387 37.2406 0.387097 34.5844C0.258064 32.8844 0.193547 31.8042 0.193547 31.3438V0.2125C0.354837 0.141668 0.451613 0.106251 0.483872 0.106251C0.548388 0.106251 0.629031 0.0708345 0.725805 0C0.919354 0 1.19355 0.0354162 1.54839 0.106251C1.93548 0.177083 2.27419 0.2125 2.56451 0.2125L2.80645 23.8531Z" fill="#F3E9D8"/>
<path d="M24.5628 2.85294C25.7923 2.63726 27.7763 2.52941 30.5148 2.52941C32.5268 2.52941 34.399 2.55882 36.1316 2.61765C38.2553 2.65686 39.6525 2.67647 40.3232 2.67647H79.3889V2.55882C79.3889 2.18627 80.1434 1.73529 79.9757 1.20588C79.808 0.696079 79.6124 0.294118 79.3889 0C72.9059 0 62.0636 0.0588217 48.5387 0.176469C45.8561 0.196077 41.4689 0.225491 35.3771 0.264707C29.2853 0.303922 24.0877 0.323529 19.7843 0.323529C12.0159 0.323529 5.5888 0.254902 0.502992 0.117647C0.502992 0.490196 0.41916 0.921568 0.251496 1.41176C0.195608 1.60784 0.13972 1.81372 0.0838319 2.02941C0.027944 2.2451 0 2.46079 0 2.67647C2.06785 2.89216 5.22553 3 9.47301 3C12.2115 3 14.9221 2.97059 17.6047 2.91177C20.958 2.87255 23.2773 2.85294 24.5628 2.85294ZM57.0896 2.38235C57.5367 2.32353 57.8161 2.29412 57.9279 2.29412C58.0956 2.29412 58.375 2.32353 58.7662 2.38235H57.0896Z" fill="#F3E9D8"/>
</svg>
